<?xml version="1.0" encoding="utf-8"?>
<!-- Generator: Adobe Illustrator 18.0.0, SVG Export Plug-In . SVG Version: 6.00 Build 0)  -->
<!DOCTYPE svg PUBLIC "-//W3C//DTD SVG 1.1//EN" "http://www.w3.org/Graphics/SVG/1.1/DTD/svg11.dtd">
<svg version="1.1" id="Layer_1" xmlns="http://www.w3.org/2000/svg" xmlns:xlink="http://www.w3.org/1999/xlink" x="0px" y="0px"
	 viewBox="0 -150 960 930" enable-background="new 0 -150 960 930" xml:space="preserve">
<g>
	
		<linearGradient id="HI_1_" gradientUnits="userSpaceOnUse" x1="173.039" y1="712.9608" x2="173.039" y2="711.9608" gradientTransform="matrix(113.6478 0 0 -72.5859 -19367.6367 52111.2383)">
		<stop  offset="0" style="stop-color:#FFFF00"/>
		<stop  offset="1" style="stop-color:#FF0000"/>
	</linearGradient>
	<path id="HI" fill="url(#HI_1_)" d="M241,369.6l1.9-3.6l2.3-0.3l0.3,0.8l-2.1,3.1H241z M251.2,365.9l6.1,2.6l2.1-0.3l1.6-3.9
		l-0.6-3.4l-4.2-0.5l-4,1.8L251.2,365.9z M281.9,375.9l3.7,5.5l2.4-0.3l1.1-0.5l1.5,1.3l3.7-0.2l1-1.5l-2.9-1.8l-1.9-3.7l-2.1-3.6
		l-5.8,2.9L281.9,375.9z M302.2,384.8l1.3-1.9l4.7,1l0.6-0.5l6.1,0.6l-0.3,1.3l-2.6,1.5l-4.4-0.3L302.2,384.8z M307.5,389.9l1.9,3.9
		l3.1-1.1l0.3-1.6l-1.6-2.1l-3.7-0.3V389.9z M314.4,388.8l2.3-2.9l4.7,2.4l4.4,1.1l4.4,2.7v1.9l-3.6,1.8l-4.8,1l-2.4-1.5
		L314.4,388.8z M331.1,404.3l1.6-1.3l3.4,1.6l7.6,3.6l3.4,2.1l1.6,2.4l1.9,4.4l4,2.6l-0.3,1.3l-3.9,3.2l-4.2,1.5l-1.5-0.6l-3.1,1.8
		l-2.4,3.2l-2.3,2.9l-1.8-0.2l-3.6-2.6l-0.3-4.5l0.6-2.4l-1.6-5.7l-2.1-1.8l-0.2-2.6l2.3-1l2.1-3.1l0.5-1l-1.6-1.8L331.1,404.3z"/>
	
		<linearGradient id="AK_1_" gradientUnits="userSpaceOnUse" x1="173.7063" y1="712.4479" x2="173.7063" y2="711.4479" gradientTransform="matrix(209.1896 0 0 -155.6797 -36219.0391 111197.125)">
		<stop  offset="0" style="stop-color:#FFFF00"/>
		<stop  offset="1" style="stop-color:#FF0000"/>
	</linearGradient>
	<path id="AK" fill="url(#AK_1_)" d="M166,303.9l-0.3,85.4l1.6,1l3.1,0.2l1.5-1.1h2.6l0.2,2.9l7,6.8l0.5,2.6l3.4-1.9l0.6-0.2
		l0.3-3.1l1.5-1.6l1.1-0.2l1.9-1.5l3.1,2.1l0.6,2.9l1.9,1.1l1.1,2.4l3.9,1.8l3.4,6l2.7,3.9l2.3,2.7l1.5,3.7l5,1.8l5.2,2.1l1,4.4
		l0.5,3.1l-1,3.4l-1.8,2.3l-1.6-0.8l-1.5-3.1l-2.7-1.5l-1.8-1.1l-0.8,0.8l1.5,2.7l0.2,3.7l-1.1,0.5l-1.9-1.9l-2.1-1.3l0.5,1.6
		l1.3,1.8l-0.8,0.8c0,0-0.8-0.3-1.3-1c-0.5-0.6-2.1-3.4-2.1-3.4l-1-2.3c0,0-0.3,1.3-1,1s-1.3-1.5-1.3-1.5l1.8-1.9l-1.5-1.5v-5h-0.8
		l-0.8,3.4l-1.1,0.5l-1-3.7l-0.6-3.7l-0.8-0.5l0.3,5.7v1.1l-1.5-1.3l-3.6-6l-2.1-0.5l-0.6-3.7l-1.6-2.9l-1.6-1.1v-2.3l2.1-1.3
		l-0.5-0.3l-2.6,0.6l-3.4-2.4l-2.6-2.9l-4.8-2.6l-4-2.6l1.3-3.2v-1.6l-1.8,1.6L168,395l-3.7-1.1l-5.7-2.4h-5.5l-0.6,0.5L146,388
		l-2.1-0.3l-2.7-5.8l-3.6,0.3l-3.6,1.5l0.5,4.5l1.1-2.9l1,0.3l-1.5,4.4l3.2-2.7l0.6,1.6l-3.9,4.4l-1.3-0.3l-0.5-1.9l-1.3-0.8
		l-1.3,1.1l-2.7-1.8l-3.1,2.1l-1.8,2.1l-3.4,2.1l-4.7-0.2l-0.5-2.1l3.7-0.6v-1.3l-2.3-0.6l1-2.4l2.3-3.9v-1.8l0.2-0.8l4.4-2.3l1,1.3
		h2.7l-1.3-2.6l-3.7-0.3l-5,2.7l-2.4,3.4l-1.8,2.6l-1.1,2.3l-4.2,1.5l-3.1,2.6l-0.3,1.6l2.3,1l0.8,2.1l-2.7,3.2l-6.5,4.2l-7.8,4.2
		l-2.1,1.1l-5.3,1.1l-5.3,2.3l1.8,1.3l-1.5,1.5l-0.5,1.1l-2.7-1l-3.2,0.2l-0.8,2.3h-1l0.3-2.4l-3.6,1.3l-2.9,1l-3.4-1.3l-2.9,1.9
		h-3.2l-2.1,1.3l-1.6,0.8l-2.1-0.3l-2.6-1.1l-2.3,0.6l-1,1l-1.6-1.1V419l3.1-1.3l6.3,0.6l4.4-1.6l2.1-2.1l2.9-0.6l1.8-0.8l2.7,0.2
		l1.6,1.3l1-0.3l2.3-2.7l3.1-1l3.4-0.6l1.3-0.3l0.6,0.5h0.8l1.3-3.7l4-1.5l1.9-3.7l2.3-4.5l1.6-1.5l0.3-2.6l-1.6,1.3l-3.4,0.6
		l-0.6-2.4l-1.3-0.3l-1,1l-0.2,2.9l-1.5-0.2l-1.5-5.8l-1.3,1.3l-1.1-0.5l-0.3-1.9l-4,0.2l-2.1,1.1l-2.6-0.3l1.5-1.5l0.5-2.6
		l-0.6-1.9l1.5-1l1.3-0.2l-0.6-1.8v-4.4l-1-1l-0.8,1.5h-6.1l-1.5-1.3l-0.6-3.9l-2.1-3.6v-1l2.1-0.8l0.2-2.1l1.1-1.1l-0.8-0.5
		l-1.3,0.5l-1.1-2.7l1-5l4.5-3.2l2.6-1.6l1.9-3.7l2.7-1.3l2.6,1.1l0.3,2.4l2.4-0.3l3.2-2.4l1.6,0.6l1,0.6h1.6l2.3-1.3l0.8-4.4
		c0,0,0.3-2.9,1-3.4c0.6-0.5,1-1,1-1l-1.1-1.9l-2.6,0.8l-3.2,0.8l-1.9-0.5L77,335l-5-0.2l-3.6-3.7l0.5-3.9l0.6-2.4l-2.1-1.8
		l-1.9-3.7l0.5-0.8l6.8-0.5h2.1l1,1h0.6l-0.2-1.6l3.9-0.6l2.6,0.3l1.5,1.1l-1.5,2.1l-0.5,1.5l2.7,1.6l5,1.8l1.8-1l-2.3-4.4l-1-3.2
		l1-0.8l-3.4-1.9l-0.5-1.1l0.5-1.6l-0.8-3.9l-2.9-4.7l-2.4-4.2l2.9-1.9h3.2L88,297l4.2-0.2l3.7-3.6l1.1-3.1l3.7-2.4l1.6,1l2.7-0.6
		l3.7-2.1l1.1-0.2l1,0.8l4.5-0.2l2.7-3.1h1.1l3.6,2.4l1.9,2.1l-0.5,1.1l0.6,1.1l1.6-1.6l3.9,0.3l0.3,3.7l1.9,1.5l7.1,0.6l6.3,4.2
		l1.5-1l5.2,2.6l2.1-0.6l1.9-0.8l4.8,1.9L166,303.9z M50.9,332.9l2.1,5.3l-0.2,1l-2.9-0.3l-1.8-4l-1.8-1.5H44l-0.2-2.6l1.8-2.4
		l1.1,2.4l1.5,1.5L50.9,332.9z M48.3,366.3l3.7,0.8l3.7,1l0.8,1l-1.6,3.7l-3.1-0.2l-3.4-3.6L48.3,366.3z M27.7,352.3l1.1,2.6
		l1.1,1.6l-1.1,0.8l-2.1-3.1v-1.9H27.7z M13.9,425.3l3.4-2.3l3.4-1l2.6,0.3l0.5,1.6l1.9,0.5l1.9-1.9l-0.3-1.6l2.7-0.6l2.9,2.6
		l-1.1,1.8l-4.4,1.1l-2.7-0.5l-3.7-1.1l-4.4,1.5L15,426L13.9,425.3z M62.9,420.8l1.6,1.9l2.1-1.6l-1.5-1.3L62.9,420.8z M65.8,423.9
		l1.1-2.3L69,422l-0.8,1.9H65.8z M89.4,422l1.5,1.8l1-1.1l-0.8-1.9L89.4,422z M98.1,409.5l1.1,5.8l2.9,0.8l5-2.9l4.4-2.6l-1.6-2.4
		l0.5-2.4l-2.1,1.3l-2.9-0.8l1.6-1.1l1.9,0.8l3.9-1.8l0.5-1.5l-2.4-0.8l0.8-1.9l-2.7,1.9l-4.7,3.6l-4.8,2.9L98.1,409.5z
		 M140.5,389.6l2.4-1.5l-1-1.8l-1.8,1L140.5,389.6z"/>
	
		<linearGradient id="FL_1_" gradientUnits="userSpaceOnUse" x1="173.4583" y1="712.5201" x2="173.4583" y2="711.5201" gradientTransform="matrix(159.3991 0 0 -134.0723 -26922.752 95824.1797)">
		<stop  offset="0" style="stop-color:#FFFF00"/>
		<stop  offset="1" style="stop-color:#FF0000"/>
	</linearGradient>
	<path id="FL" fill="url(#FL_1_)" d="M763.4,295.8l2.3,7.3l3.7,9.7l5.3,9.4l3.7,6.3l4.8,5.5l4,3.7l1.6,2.9l-1.1,1.3l-0.8,1.3
		l2.9,7.4l2.9,2.9l2.6,5.3l3.6,5.8l4.5,8.2l1.3,7.6l0.5,12l0.6,1.8l-0.3,3.4l-2.4,1.3l0.3,1.9l-0.6,1.9l0.3,2.4l0.5,1.9l-2.7,3.2
		l-3.1,1.5l-3.9,0.2l-1.5,1.6l-2.4,1l-1.3-0.5l-1.1-1l-0.3-2.9l-0.8-3.4l-3.4-5.2l-3.6-2.3l-3.9-0.3l-0.8,1.3l-3.1-4.4l-0.6-3.6
		l-2.6-4l-1.8-1.1l-1.6,2.1l-1.8-0.3l-2.1-5l-2.9-3.9l-2.9-5.3l-2.6-3.1l-3.6-3.7l2.1-2.4l3.2-5.5l-0.2-1.6l-4.5-1l-1.6,0.6l0.3,0.6
		l2.6,1l-1.5,4.5l-0.8,0.5l-1.8-4l-1.3-4.8l-0.3-2.7l1.5-4.7V339l-3.1-3.7l-1.3-3.1l-5.2-1.3l-1.9-0.6l-1.6-2.6l-3.4-1.6l-1.1-3.4
		l-2.7-1l-2.4-3.7l-4.2-1.5l-2.9-1.5h-2.6l-4,0.8l-0.2,1.9l0.8,1l-0.5,1.1l-3.1-0.2l-3.7,3.6l-3.6,1.9h-3.9l-3.2,1.3l-0.3-2.7
		l-1.6-1.9l-2.9-1.1l-1.6-1.5l-8.1-3.9l-7.6-1.8l-4.4,0.6l-6,0.5l-6,2.1l-3.5,0.6l-0.2-8l-2.6-1.9l-1.8-1.8l0.3-3.1l10.2-1.3
		l25.5-2.9l6.8-0.6l5.4,0.3l2.6,3.9l1.5,1.5l8.1,0.5l10.8-0.6l21.5-1.3l5.4-0.7l4.6,0l0.2,2.9l3.8,0.8l0.3-4.8l-1.6-4.5l1-0.7
		l5.1,0.5L763.4,295.8z M775.9,428.2l2.4-0.6l1.3-0.2l1.5-2.3l2.3-1.6l1.3,0.5l1.7,0.3l0.4,1.1l-3.5,1.2l-4.2,1.5l-2.3,1.2
		L775.9,428.2z M789.4,423.2l1.2,1.1l2.7-2.1l5.3-4.2l3.7-3.9l2.5-6.6l1-1.7l0.2-3.4l-0.7,0.5l-1,2.8l-1.5,4.6l-3.2,5.3l-4.4,4.2
		l-3.4,1.9L789.4,423.2z"/>
	
		<linearGradient id="SC_1_" gradientUnits="userSpaceOnUse" x1="172.6172" y1="713.0419" x2="172.6172" y2="712.0419" gradientTransform="matrix(88.1902 0 0 -66.9276 -14463.0469 47919.3945)">
		<stop  offset="0" style="stop-color:#FFFF00"/>
		<stop  offset="1" style="stop-color:#FF0000"/>
	</linearGradient>
	<path id="SC" fill="url(#SC_1_)" d="M769.2,263.2l-1.8,1l-2.6-1.3l-0.6-2.1l-1.3-3.6l-2.3-2.1l-2.6-0.6l-1.6-4.8l-2.7-6l-4.2-1.9
		l-2.1-1.9l-1.3-2.6l-2.1-1.9l-2.3-1.3l-2.3-2.9l-3.1-2.3l-4.5-1.8l-0.5-1.5l-2.4-2.9l-0.5-1.5l-3.4-5.2l-3.4,0.2l-4-2.4l-1.3-1.3
		l-0.3-1.8l0.8-1.9l2.3-1l-0.3-2.1l6.1-2.6l9.1-4.5l7.3-0.8l16.5-0.5l2.3,1.9l1.6,3.2l4.4-0.5l12.6-1.5l2.9,0.8l12.6,7.6l10.1,8.1
		l-5.4,5.5l-2.6,6.1l-0.5,6.3l-1.6,0.8l-1.1,2.7l-2.4,0.6l-2.1,3.6l-2.7,2.7l-2.3,3.4l-1.6,0.8l-3.6,3.4l-2.9,0.2l1,3.2l-5,5.5
		L769.2,263.2z"/>
	
		<linearGradient id="GA_1_" gradientUnits="userSpaceOnUse" x1="172.7218" y1="712.7095" x2="172.7218" y2="711.7095" gradientTransform="matrix(93.3782 0 0 -98.2897 -15406.0205 70257.9766)">
		<stop  offset="0" style="stop-color:#FFFF00"/>
		<stop  offset="1" style="stop-color:#FF0000"/>
	</linearGradient>
	<path id="GA" fill="url(#GA_1_)" d="M697.6,208.2l-4.8,0.8l-8.4,1.1l-8.6,0.9v2.2l0.2,2.1l0.6,3.4l3.4,7.9l2.4,9.9l1.5,6.1l1.6,4.8
		l1.5,7l2.1,6.3l2.6,3.4l0.5,3.4l1.9,0.8l0.2,2.1l-1.8,4.8l-0.5,3.2l-0.2,1.9l1.6,4.4l0.3,5.3l-0.8,2.4l0.6,0.8l1.5,0.8l0.6,3.4
		l2.6,3.9l1.5,1.5l7.9,0.2l10.8-0.6l21.5-1.3l5.4-0.7l4.6,0l0.2,2.9l2.6,0.8l0.3-4.4l-1.6-4.5l1.1-1.6l5.8,0.8l5,0.3l-0.8-6.3
		l2.3-10l1.5-4.2l-0.5-2.6l3.3-6.2l-0.5-1.4l-1.9,0.7l-2.6-1.3l-0.6-2.1l-1.3-3.6l-2.3-2.1l-2.6-0.6l-1.6-4.8l-2.9-6.3l-4.2-1.9
		l-2.1-1.9l-1.3-2.6l-2.1-1.9l-2.3-1.3l-2.3-2.9l-3.1-2.3l-4.5-1.8l-0.5-1.5l-2.4-2.9l-0.5-1.5l-3.4-4.9l-3.4,0.2l-4.1-3l-1.3-1.3
		l-0.3-1.8l0.8-1.9l2.4-1.2l-1.1-1.2l0.1-0.3l-5.8,1l-7,0.8L697.6,208.2z"/>
	
		<linearGradient id="AL_1_" gradientUnits="userSpaceOnUse" x1="171.9682" y1="712.6418" x2="171.9682" y2="711.6418" gradientTransform="matrix(65.5829 0 0 -108.6519 -10616.1992 77641.2188)">
		<stop  offset="0" style="stop-color:#FFFF00"/>
		<stop  offset="1" style="stop-color:#FF0000"/>
	</linearGradient>
	<path id="AL" fill="url(#AL_1_)" d="M633.6,317l-1.6-15.2l-2.7-18.8l0.2-14.1l0.8-31l-0.2-16.7l0.2-6.4l7.8-0.4l27.8-2.6l8.9-0.7
		l-0.1,2.2l0.2,2.1l0.6,3.4l3.4,7.9l2.4,9.9l1.5,6.1l1.6,4.8l1.5,7l2.1,6.3l2.6,3.4l0.5,3.4l1.9,0.8l0.2,2.1l-1.8,4.8l-0.5,3.2
		l-0.2,1.9l1.6,4.4l0.3,5.3l-0.8,2.4l0.6,0.8l1.5,0.8l1,2.5h-6.3l-6.8,0.6l-25.5,2.9l-10.4,1.4l-0.1,3.8l1.8,1.8l2.6,1.9l0.6,7.9
		l-5.5,2.6l-2.7-0.3l2.7-1.9v-1l-3.1-6l-2.3-0.6l-1.5,4.4l-1.3,2.7l-0.6-0.2H633.6z"/>
	
		<linearGradient id="NC_1_" gradientUnits="userSpaceOnUse" x1="173.4297" y1="713.0336" x2="173.4297" y2="712.0336" gradientTransform="matrix(155.1303 0 0 -67.4662 -26129.2344 48254.418)">
		<stop  offset="0" style="stop-color:#FFFF00"/>
		<stop  offset="1" style="stop-color:#FF0000"/>
	</linearGradient>
	<path id="NC" fill="url(#NC_1_)" d="M840.1,148.7l1.7,4.7l3.6,6.5l2.4,2.4l0.6,2.3l-2.4,0.2l0.8,0.6l-0.3,4.2l-2.6,1.3l-0.6,2.1
		l-1.3,2.9l-3.7,1.6l-2.4-0.3l-1.5-0.2l-1.6-1.3l0.3,1.3v1h1.9l0.8,1.3l-1.9,6.3h4.2l0.6,1.6l2.3-2.3l1.3-0.5l-1.9,3.6l-3.1,4.8H836
		l-1.1-0.5l-2.7,0.6l-5.2,2.4l-6.5,5.3l-3.4,4.7l-1.9,6.5l-0.5,2.4l-4.7,0.5l-5.5,1.3l-9.9-8.2l-12.6-7.6l-2.9-0.8l-12.6,1.5
		l-4.3,0.8l-1.6-3.2l-3-2.1l-16.5,0.5l-7.3,0.8l-9.1,4.5l-6.1,2.6l-1.6,0.3l-5.8,1l-7,0.8l-6.8,0.5l0.5-4.1l1.8-1.5l2.7-0.6l0.6-3.7
		l4.2-2.7l3.9-1.5l4.2-3.6l4.4-2.1l0.6-3.1l3.9-3.9l0.6-0.2c0,0,0,1.1,0.8,1.1c0.8,0,1.9,0.3,1.9,0.3l2.3-3.6l2.1-0.6l2.3,0.3
		l1.6-3.6l2.9-2.6l0.5-2.1v-4l4.5,0.7l7.1-1.3l15.8-1.9l17.1-2.6l19.9-4l19.7-4.2l11.4-2.8L840.1,148.7z M844,181.7l2.6-2.5l3.2-2.6
		l1.5-0.6l0.2-2l-0.6-6.1l-1.5-2.3l-0.6-1.9l0.7-0.2l2.7,5.5l0.4,4.4l-0.2,3.4l-3.4,1.5l-2.8,2.4l-1.1,1.2L844,181.7z"/>
	
		<linearGradient id="TN_1_" gradientUnits="userSpaceOnUse" x1="173.3615" y1="713.3876" x2="173.3615" y2="712.3876" gradientTransform="matrix(145.845 0 0 -50.2578 -24618.1738 36019.3438)">
		<stop  offset="0" style="stop-color:#FFFF00"/>
		<stop  offset="1" style="stop-color:#FF0000"/>
	</linearGradient>
	<path id="TN" fill="url(#TN_1_)" d="M705,170.9l-51.9,5l-15.8,1.8l-4.6,0.5l-3.9,0v3.9l-8.4,0.5l-7,0.6l-11.1,0.1l-0.3,5.8
		l-2.1,6.3l-1,3l-1.3,4.4l-0.3,2.6l-4,2.3l1.5,3.6l-1,4.4l-1,0.8l7.3-0.2l24.1-1.9l5.3-0.2l8.1-0.5l27.8-2.6l10.2-0.8l8.4-1l8.4-1.1
		l4.8-0.8l-0.1-4.5l1.8-1.5l2.7-0.6l0.6-3.7l4.2-2.7l3.9-1.5l4.2-3.6l4.4-2.1l0.9-3.5l4.3-3.9l0.6-0.2c0,0,0,1.1,0.8,1.1
		s1.9,0.3,1.9,0.3l2.3-3.6l2.1-0.6l2.3,0.3l1.6-3.6l2.1-2.2l0.6-1l0.2-3.9l-1.5-0.3l-2.4,1.9l-7.9,0.2l-12,1.9L705,170.9z"/>
	
		<linearGradient id="RI_1_" gradientUnits="userSpaceOnUse" x1="162.3439" y1="716.3569" x2="162.3439" y2="715.3569" gradientTransform="matrix(13.6592 0 0 -16.0056 -1331.6265 11479.8271)">
		<stop  offset="0" style="stop-color:#FFFF00"/>
		<stop  offset="1" style="stop-color:#FF0000"/>
	</linearGradient>
	<path id="RI" fill="url(#RI_1_)" d="M882,30.1l-0.5-4.2l-0.8-4.4l-1.7-5.9l5.7-1.5l1.6,1.1l3.4,4.4l2.9,4.4l-2.9,1.5l-1.3-0.2
		l-1.1,1.8l-2.4,1.9L882,30.1z"/>
	
		<linearGradient id="CT_1_" gradientUnits="userSpaceOnUse" x1="168.78" y1="714.4283" x2="168.78" y2="713.4283" gradientTransform="matrix(29.0285 0 0 -28.7179 -4032.7949 20532.6309)">
		<stop  offset="0" style="stop-color:#FFFF00"/>
		<stop  offset="1" style="stop-color:#FF0000"/>
	</linearGradient>
	<path id="CT" fill="url(#CT_1_)" d="M881.2,30.3l-0.6-4.2l-0.8-4.4l-1.6-6l-4.2,0.9l-21.8,4.8l0.6,3.3l1.5,7.3v8.1l-1.1,2.3
		l1.8,2.1l5-3.4l3.6-3.2l1.9-2.1l0.8,0.6l2.7-1.5l5.2-1.1L881.2,30.3z"/>
	
		<linearGradient id="MA_1_" gradientUnits="userSpaceOnUse" x1="171.7988" y1="714.1359" x2="171.7988" y2="713.1359" gradientTransform="matrix(61.469 0 0 -32.649 -9678.4102 23309.0176)">
		<stop  offset="0" style="stop-color:#FFFF00"/>
		<stop  offset="1" style="stop-color:#FF0000"/>
	</linearGradient>
	<path id="MA" fill="url(#MA_1_)" d="M907.9,24.1l2.2-0.7l0.5-1.7l1,0.1l1,2.3l-1.3,0.5l-3.9,0.1L907.9,24.1z M898.6,24.9l2.3-2.6
		h1.6l1.8,1.5l-2.4,1l-2.2,1L898.6,24.9z M863.8,2.9l17.5-4.2l2.3-0.6l2.1-3.2l3.7-1.7l2.9,4.4l-2.4,5.2l-0.3,1.5l1.9,2.6l1.1-0.8
		h1.8l2.3,2.6l3.9,6l3.6,0.5l2.3-1l1.8-1.8l-0.8-2.7l-2.1-1.6l-1.5,0.8l-1-1.3l0.5-0.5l2.1-0.2l1.8,0.8L909,10l1,2.9l0.3,2.4
		l-4.2,1.5l-3.9,1.9l-3.9,4.5l-1.9,1.5v-1l2.4-1.5l0.5-1.8l-0.8-3.1l-2.9,1.5l-0.8,1.5l0.5,2.3l-2.1,1l-2.7-4.5l-3.4-4.4l-2.1-1.8
		l-6.5,1.9l-5.1,1.1l-21.8,4.8l-0.4-4.9l0.6-10.6l5.2-0.9L863.8,2.9z"/>
	
		<linearGradient id="ME_1_" gradientUnits="userSpaceOnUse" x1="171.8606" y1="712.6949" x2="171.8606" y2="711.6949" gradientTransform="matrix(62.9104 0 0 -100.3457 -9907.9023 71402.7656)">
		<stop  offset="0" style="stop-color:#FFFF00"/>
		<stop  offset="1" style="stop-color:#FF0000"/>
	</linearGradient>
	<path id="ME" fill="url(#ME_1_)" d="M931.2-72.4l1.9,2.1l2.3,3.7v1.9l-2.1,4.7l-1.9,0.6l-3.4,3.1l-4.8,5.5c0,0-0.6,0-1.3,0
		c-0.6,0-1-2.1-1-2.1l-1.8,0.2l-1,1.5l-2.4,1.5l-1,1.5l1.6,1.5l-0.5,0.6l-0.5,2.7l-1.9-0.2v-1.6l-0.3-1.3l-1.5,0.3l-1.8-3.2
		l-2.1,1.3l1.3,1.5l0.3,1.1l-0.8,1.3l0.3,3.1l0.2,1.6l-1.6,2.6l-2.9,0.5l-0.3,2.9l-5.3,3.1l-1.3,0.5l-1.6-1.5l-3.1,3.6l1,3.2
		l-1.5,1.3l-0.2,4.4l-1.1,6.3l-2.5-1.2l-0.5-3.1l-3.9-1.1l-0.3-2.7l-7.3-23.4L872.5-58l1.4-0.1l1.5,0.4v-2.6l0.8-5.5l2.6-4.7l1.5-4
		l-1.9-2.4v-6l0.8-1l0.8-2.7l-0.2-1.5l-0.2-4.8l1.8-4.8l2.9-8.9l2.1-4.2h1.3l1.3,0.2v1.1l1.3,2.3l2.7,0.6l0.8-0.8v-1l4-2.9l1.8-1.8
		l1.5,0.2l6,2.4l1.9,1l9.1,29.9h6l0.8,1.9l0.2,4.8l2.9,2.3h0.8l0.2-0.5l-0.5-1.1L931.2-72.4z M910.2-42.3l1.5-1.5l1.4,1.1l0.6,2.4
		l-1.7,0.9L910.2-42.3z M916.9-48.2l1.8,1.9c0,0,1.3,0.1,1.3-0.2s0.2-2,0.2-2l0.9-0.8l-0.8-1.8l-2,0.7L916.9-48.2z"/>
	
		<linearGradient id="NH_1_" gradientUnits="userSpaceOnUse" x1="168.5325" y1="713.166" x2="168.5325" y2="712.166" gradientTransform="matrix(27.8243 0 0 -59.8115 -3812.5015 42597.9922)">
		<stop  offset="0" style="stop-color:#FFFF00"/>
		<stop  offset="1" style="stop-color:#FF0000"/>
	</linearGradient>
	<path id="NH" fill="url(#NH_1_)" d="M888.8-7.3l0.9-1.1l1.1-3.3l-2.5-0.9l-0.5-3.1l-3.9-1.1l-0.3-2.7L876.2-43l-4.6-14.5l-0.9,0
		l-0.6,1.6l-0.6-0.5l-1-1l-1.5,1.9l0,5l0.3,5.7l1.9,2.7v4l-3.7,5.1l-2.6,1.1v1.1l1.1,1.8v8.6l-0.8,9.2l-0.2,4.8l1,1.3l-0.2,4.5
		l-0.5,1.8l1.5,0.9l16.4-4.7l2.3-0.6l1.5-2.6L888.8-7.3z"/>
	
		<linearGradient id="VT_1_" gradientUnits="userSpaceOnUse" x1="168.6763" y1="713.2893" x2="168.6763" y2="712.2893" gradientTransform="matrix(28.5117 0 0 -54.0873 -3955.22 38529.7734)">
		<stop  offset="0" style="stop-color:#FFFF00"/>
		<stop  offset="1" style="stop-color:#FF0000"/>
	</linearGradient>
	<path id="VT" fill="url(#VT_1_)" d="M852.3,4l-0.8-5.7l-2.4-10l-0.6-0.3l-2.9-1.3l0.8-2.9l-0.8-2.1l-2.7-4.6l1-3.9L843-32l-2.4-6.5
		l-0.8-4.9l26.2-6.7l0.3,5.8l1.9,2.7v4l-3.7,4l-2.6,1.1v1.1l1.1,1.8v8.6l-0.8,9.2l-0.2,4.8l1,1.3L863-1l-0.5,1.8l0.7,1.6l-7,1.4
		L852.3,4z"/>
	
		<linearGradient id="NY_1_" gradientUnits="userSpaceOnUse" x1="173.193" y1="712.7168" x2="173.193" y2="711.7168" gradientTransform="matrix(127.0383 0 0 -97.2892 -21186.2129 69296.6797)">
		<stop  offset="0" style="stop-color:#FFFF00"/>
		<stop  offset="1" style="stop-color:#FF0000"/>
	</linearGradient>
	<path id="NY" fill="url(#NY_1_)" d="M836.6,39.7l-1.1-1l-2.6-0.2l-2.3-1.9l-1.6-6.1l-3.5,0.1l-2.4-2.7l-19.4,4.4l-43,8.7l-7.5,1.2
		l-0.7-6.5l1.4-1.1l1.3-1.1l1-1.6l1.8-1.1l1.9-1.8l0.5-1.6l2.1-2.7l1.1-1l-0.2-1l-1.3-3.1l-1.8-0.2l-1.9-6.1l2.9-1.8l4.4-1.5l4-1.3
		l3.2-0.5l6.3-0.2l1.9,1.3l1.6,0.2l2.1-1.3l2.6-1.1l5.2-0.5l2.1-1.8l1.8-3.2l1.6-1.9h2.1l1.9-1.1l0.2-2.3l-1.5-2.1l-0.3-1.5l1.1-2.1
		v-1.5h-1.8l-1.8-0.8l-0.8-1.1l-0.2-2.6l5.8-5.5l0.6-0.8l1.5-2.9l2.9-4.5l2.7-3.7l2.1-2.4l2.4-1.8l3.1-1.2l5.5-1.3l3.2,0.2l4.5-1.5
		l7.6-2.1l0.5,5l2.4,6.5l0.8,5.2l-1,3.9l2.6,4.5l0.8,2.1l-0.8,2.9l2.9,1.3l0.6,0.3l3.1,11l-0.5,5.1l-0.5,10.8l0.8,5.5l0.8,3.6
		l1.5,7.3V40l-1.1,2.3l1.8,2l0.8,1.7l-1.9,1.8l0.3,1.3l1.3-0.3l1.5-1.3l2.3-2.6l1.1-0.6l1.6,0.6l2.3,0.2l7.9-3.9l2.9-2.7l1.3-1.5
		l4.2,1.6l-3.4,3.6l-3.9,2.9l-7.1,5.3l-2.6,1l-5.8,1.9l-4,1.1l-1.2-0.5l-0.2-3.7l0.5-2.7l-0.2-2.1l-2.8-1.7l-4.5-1l-3.9-1.1
		L836.6,39.7z"/>
	
		<linearGradient id="NJ_1_" gradientUnits="userSpaceOnUse" x1="167.4644" y1="713.2954" x2="167.4644" y2="712.2954" gradientTransform="matrix(23.6005 0 0 -53.8341 -3109.6553 38440.2344)">
		<stop  offset="0" style="stop-color:#FFFF00"/>
		<stop  offset="1" style="stop-color:#FF0000"/>
	</linearGradient>
	<path id="NJ" fill="url(#NJ_1_)" d="M836.1,40.6L834,43v3.1l-1.9,3.1l-0.2,1.6l1.3,1.3l-0.2,2.4l-2.3,1.1l0.8,2.7l0.2,1.1l2.7,0.3
		l1,2.6l3.6,2.4l2.4,1.6v0.8l-3.2,3.1l-1.6,2.3l-1.5,2.7l-2.3,1.3l-1.2,0.7l-0.2,1.2l-0.6,2.6l1.1,2.2l3.2,2.9l4.8,2.3l4,0.6
		l0.2,1.5l-0.8,1l0.3,2.7h0.8l2.1-2.4l0.8-4.8l2.7-4l3.1-6.5l1.1-5.5l-0.6-1.1l-0.2-9.4l-1.6-3.4l-1.1,0.8l-2.7,0.3l-0.5-0.5l1.1-1
		l2.1-1.9l0.1-1.1l-0.4-3.4l0.5-2.7l-0.2-2.1l-2.6-1.1l-4.5-1l-3.9-1.1L836.1,40.6z"/>
	
		<linearGradient id="PA_1_" gradientUnits="userSpaceOnUse" x1="172.8304" y1="713.0829" x2="172.8304" y2="712.0829" gradientTransform="matrix(99.4503 0 0 -64.3946 -16397.8887 45947.793)">
		<stop  offset="0" style="stop-color:#FFFF00"/>
		<stop  offset="1" style="stop-color:#FF0000"/>
	</linearGradient>
	<path id="PA" fill="url(#PA_1_)" d="M830.2,76.7l1.1-0.6l2.3-0.6l1.5-2.7l1.6-2.3l3.2-3.1v-0.8l-2.4-1.6l-3.6-2.4l-1-2.6l-2.7-0.3
		l-0.2-1.1l-0.8-2.7l2.3-1.1l0.2-2.4l-1.3-1.3l0.2-1.6l1.9-3.1v-3.1l2.3-2.4l0.2-1.1l-2.6-0.2l-2.3-1.9l-2.4-5.3l-3-0.9l-2.3-2.1
		l-18.6,4l-43,8.7l-8.9,1.5l-0.5-7.1l-5.5,5.6l-1.3,0.5l-4.2,3l2.9,19.1l2.5,9.7l3.6,19.3l3.3-0.6l11.9-1.5l37.9-7.7l14.9-2.8
		l8.3-1.6L826,79l2.1-1.6L830.2,76.7z"/>
	
		<linearGradient id="DE_1_" gradientUnits="userSpaceOnUse" x1="165.5682" y1="714.4099" x2="165.5682" y2="713.4099" gradientTransform="matrix(18.59 0 0 -28.9373 -2242.5273 20750.375)">
		<stop  offset="0" style="stop-color:#FFFF00"/>
		<stop  offset="1" style="stop-color:#FF0000"/>
	</linearGradient>
	<path id="DE" fill="url(#DE_1_)" d="M830.3,80.7l0.6-2.1l0-1.2l-1.3-0.1l-2.1,1.6l-1.5,1.5l1.5,4.2l2.3,5.7l2.1,9.7l1.6,6.3l5-0.2
		l6.1-1.2l-2.3-7.4l-1,0.5l-3.6-2.4l-1.8-4.7l-1.9-3.6l-2.3-1l-2.1-3.6L830.3,80.7z"/>
	
		<linearGradient id="MD_1_" gradientUnits="userSpaceOnUse" x1="172.4055" y1="713.7206" x2="172.4055" y2="712.7206" gradientTransform="matrix(79.2774 0 0 -40.529 -12862.5928 29006.5234)">
		<stop  offset="0" style="stop-color:#FFFF00"/>
		<stop  offset="1" style="stop-color:#FF0000"/>
	</linearGradient>
	<path id="MD" fill="url(#MD_1_)" d="M844.9,105.6l-6.1,1.3L833,107l-1.8-7.1l-2.1-9.7l-2.3-5.7l-1.3-4.4l-7.5,1.6l-14.9,2.8
		l-37.5,7.6l1.1,5l1,5.7l0.3-0.3l2.1-2.4l2.3-2.6l2.4-0.6l1.5-1.5l1.8-2.6l1.3,0.6l2.9-0.3l2.6-2.1l2-1.5l1.8-0.5l1.6,1.1l2.9,1.5
		l1.9,1.8l1.2,1.5l4.1,1.7v2.9l5.5,1.3l1.1,0.5l1.4-2l2.9,2l-1.3,2.5l-0.8,4l-1.8,2.6v2.1l0.6,1.8l5.1,1.4l4.3-0.1l3.1,1l2.1,0.3
		l1-2.1l-1.5-2.1v-1.8l-2.4-2.1l-2.1-5.5l1.3-5.3l-0.2-2.1l-1.3-1.3c0,0,1.5-1.6,1.5-2.3c0-0.6,0.5-2.1,0.5-2.1l1.9-1.3l1.9-1.6
		l0.5,1l-1.5,1.6l-1.3,3.7l0.3,1.1l1.8,0.3l0.5,5.5l-2.1,1l0.3,3.6l0.5-0.2l1.1-1.9l1.6,1.8l-1.6,1.3l-0.3,3.4l2.6,3.4l3.9,0.5
		l1.6-0.8l3.2,4.2l1.4,0.5l6.7-2.8l2-4L844.9,105.6z M828.3,114.6l1.1,2.5l0.2,1.8l1.1,1.9c0,0,0.9-0.9,0.9-1.2
		c0-0.3-0.7-3.1-0.7-3.1l-0.7-2.3L828.3,114.6z"/>
	
		<linearGradient id="WV_1_" gradientUnits="userSpaceOnUse" x1="172.3708" y1="712.8894" x2="172.3708" y2="711.8894" gradientTransform="matrix(77.9827 0 0 -78.4054 -12685.2402 55969.1133)">
		<stop  offset="0" style="stop-color:#FFFF00"/>
		<stop  offset="1" style="stop-color:#FF0000"/>
	</linearGradient>
	<path id="WV" fill="url(#WV_1_)" d="M764.5,92.2l1.1,4.9l1.1,6.9l3.6-2.7l2.3-3.1l2.5-0.6l1.5-1.5l1.8-2.6l1.2,0.6l2.9-0.3l2.6-2.1
		l2-1.5l1.8-0.5l1.3,1l2.2,1.1l1.9,1.8l1.4,1.3l-0.1,4.7l-5.7-3.1l-4.5-1.8l-0.2,5.3l-0.5,2.1l-1.6,2.7l-0.6,1.6l-3.1,2.4l-0.5,2.3
		l-3.4,0.3l-0.3,3.1l-1.1,5.5h-2.6l-1.3-0.8l-1.6-2.7l-1.8,0.2l-0.3,4.4l-2.1,6.6l-5,10.8l0.8,1.3l-0.2,2.7l-2.1,1.9l-1.5-0.3
		l-3.2,2.4l-2.6-1l-1.8,4.7c0,0-3.7,0.8-4.4,1c-0.6,0.2-2.4-1.3-2.4-1.3l-2.4,2.3l-2.6,0.6l-2.9-0.8l-1.3-1.3l-2.2-3l-3.1-2
		l-2.6-2.7l-2.9-3.7l-0.6-2.3l-2.6-1.5l-0.8-1.6l-0.2-5.3l2.2-0.1l1.9-0.8l0.2-2.7l1.6-1.5l0.2-5l1-3.9l1.3-0.6l1.3,1.1l0.5,1.8
		l1.8-1l0.5-1.6l-1.1-1.8v-2.4l1-1.3l2.3-3.4l1.3-1.5l2.1,0.5l2.3-1.6l3.1-3.4l2.3-3.9l0.3-5.7l0.5-5v-4.7l-1.1-3.1l1-1.5l1.3-1.3
		l3.5,19.8l4.6-0.8L764.5,92.2z"/>
	
		<linearGradient id="KY_1_" gradientUnits="userSpaceOnUse" x1="173.1984" y1="713.084" x2="173.1984" y2="712.084" gradientTransform="matrix(127.5685 0 0 -64.3336 -21428.7012 45993.2812)">
		<stop  offset="0" style="stop-color:#FFFF00"/>
		<stop  offset="1" style="stop-color:#FF0000"/>
	</linearGradient>
	<path id="KY" fill="url(#KY_1_)" d="M729.7,148.1l-2.3,2.7l-4.2,3.6l-4.3,5.9l-1.8,1.8v2.1l-3.9,2.1l-5.7,3.4l-3.5,0.4l-51.9,4.9
		l-15.8,1.8l-4.6,0.5l-3.9,0l-0.2,4.2l-8.2,0.1l-7,0.6l-10.4,0.2l1.9-0.2l2.2-1.8l2.1-1.1l0.2-3.2l0.9-1.8l-1.6-2.5l0.8-1.9l2.3-1.8
		l2.1-0.6l2.7,1.3l3.6,1.3l1.1-0.3l0.2-2.3l-1.3-2.4l0.3-2.3l1.9-1.5l2.6-0.6l1.6-0.6l-0.8-1.8l-0.6-1.9l1.1-0.8l1.1-3.3l3-1.7
		l5.8-1l3.6-0.5l1.5,1.9l1.8,0.8l1.8-3.2l2.9-1.5l1.9,1.6l0.8,1.1l2.1-0.5l-0.2-3.4l2.9-1.6l1.1-0.8l1.1,1.6h4.7l0.8-2.1l-0.3-2.3
		l2.9-3.6l4.7-3.9l0.5-4.5l2.7-0.3l3.9-1.8l2.7-1.9l-0.3-1.9l-1.5-1.5l0.6-2.2l4.1-0.2l2.4-0.8l2.9,1.6l1.6,4.4l5.8,0.3l1.8,1.8
		l2.1,0.2l2.4-1.5l3.1,0.5l1.3,1.5l2.7-2.6l1.8-1.3h1.6l0.6,2.7l1.8,1l2.4,2.2l0.2,5.5l0.8,1.6l2.6,1.5l0.6,2.3l2.9,3.7l2.6,2.7
		L729.7,148.1z"/>
	
		<linearGradient id="OH_1_" gradientUnits="userSpaceOnUse" x1="172.1887" y1="712.8472" x2="172.1887" y2="711.8472" gradientTransform="matrix(71.8383 0 0 -82.3088 -11661.9443 58718.8477)">
		<stop  offset="0" style="stop-color:#FFFF00"/>
		<stop  offset="1" style="stop-color:#FF0000"/>
	</linearGradient>
	<path id="OH" fill="url(#OH_1_)" d="M739.4,45.3l-6.1,4.1l-3.9,2.3l-3.4,3.7l-4,3.9l-3.2,0.8l-2.9,0.5l-5.5,2.6l-2.1,0.2l-3.4-3.1
		l-5.2,0.6l-2.6-1.5l-2.4-1.4l-4.9,0.7l-10.2,1.6l-7.8,1.2l1.3,14.6l1.8,13.7l2.6,23.4l0.6,4.8l4.1-0.1l2.4-0.8l3.4,1.5l2.1,4.4
		l5.1,0l1.9,2.1l1.8-0.1l2.5-1.3l2.5,0.4l2,1.5l1.7-2.1l2.3-1.3l2.1-0.7l0.6,2.7l1.8,1l3.5,2.3l2.2-0.1l1.1-1.1l-0.1-1.4l1.6-1.5
		l0.2-5l1-3.9l1.5-1.4l1.5,0.9l0.8,1.2l1.2-0.2l-0.4-2.4l-0.6-0.6v-2.4l1-1.3l2.3-3.4l1.3-1.5l2.1,0.5l2.3-1.6L740,99l2.3-3.9
		l0.2-5.4l0.5-5V80l-1.1-3.1l1-1.5l0.9-1l-1.4-9.8L739.4,45.3z"/>
	
		<linearGradient id="MI_1_" gradientUnits="userSpaceOnUse" x1="173.2295" y1="712.5068" x2="173.2295" y2="711.5068" gradientTransform="matrix(130.6913 0 0 -137.5877 -21998.8027 97957.2109)">
		<stop  offset="0" style="stop-color:#FFFF00"/>
		<stop  offset="1" style="stop-color:#FF0000"/>
	</linearGradient>
	<path id="MI" fill="url(#MI_1_)" d="M589.6-67.7l1.8-2.1l2.2-0.8l5.4-3.9l2.3-0.6l0.5,0.5l-5.1,5.1l-3.3,1.9l-2.1,0.9L589.6-67.7z
		 M675.8-35.5l0.6,2.5l3.2,0.2l1.3-1.2c0,0-0.1-1.5-0.4-1.6c-0.3-0.2-1.6-1.9-1.6-1.9l-2.2,0.2l-1.6,0.2l-0.3,1.1L675.8-35.5z
		 M705.8,27.5l-3.2-8.2l-2.3-9.1L697.9,7l-2.6-1.8l-1.6,1.1l-3.9,1.8l-1.9,5l-2.7,3.7l-1.1,0.6l-1.5-0.6c0,0-2.6-1.5-2.4-2.1
		s0.5-5,0.5-5l3.4-1.3l0.8-3.4l0.6-2.6l2.4-1.6l-0.3-10l-1.6-2.3l-1.3-0.8l-0.8-2.1l0.8-0.8l1.6,0.3l0.2-1.6l-2.4-2.3l-1.3-2.6h-2.6
		l-4.5-1.5l-5.5-3.4h-2.7l-0.6,0.6l-1-0.5l-3.1-2.3l-2.9,1.8l-2.9,2.3l0.3,3.6l1,0.3l2.1,0.5l0.5,0.8l-2.6,0.8l-2.6,0.3l-1.5,1.8
		l-0.3,2.1l0.3,1.6l0.3,5.5l-3.6,2.1L650.2-5v-4.2l1.3-2.4l0.6-2.4l-0.8-0.8l-1.9,0.8l-1,4.2l-2.7,1.1l-1.8,1.9l-0.2,1l0.6,0.8
		l-0.6,2.6l-2.3,0.5v1.1l0.8,2.4l-1.1,6.1l-1.6,4l0.6,4.7l0.5,1.1l-0.8,2.4l-0.3,0.8l-0.3,2.7l3.6,6l2.9,6.5l1.5,4.8l-0.8,4.7l-1,6
		l-2.4,5.2l-0.3,2.7l-3.3,3.1l4.4-0.2l21.4-2.3l7.3-1l0.1,1.7l6.9-1.2l10.3-1.5l3.9-0.5l0.1-0.6l0.2-1.5l2.1-3.7l2-1.7l-0.2-5.1
		l1.6-1.6l1.1-0.3l0.2-3.6l1.5-3l1.1,0.6l0.2,0.6l0.8,0.2l1.9-1L705.8,27.5z M575.4-38.5l0.7-0.6l2.7-0.8l3.6-2.3v-1l0.6-0.6l6-1
		l2.4-1.9l4.4-2.1l0.2-1.3L598-53l1.8-0.8l1.3-1.8l2.3-2.3l4.4-2.4l4.7-0.5l1.1,1.1l-0.3,1l-3.7,1l-1.5,3.1l-2.3,0.8l-0.5,2.4
		l-2.4,3.2l-0.3,2.6l0.8,0.5l1-1.1l3.6-2.9l1.3,1.3h2.3l3.2,1l1.5,1.1l1.5,3.1l2.7,2.7l3.9-0.2l1.5-1l1.6,1.3l1.6,0.5l1.3-0.8h1.1
		l1.6-1l4-3.6l3.4-1.1l6.6-0.3l4.5-1.9l2.6-1.3l1.5,0.2v5.7l0.5,0.3l2.9,0.8l1.9-0.5l6.1-1.6l1.1-1.1l1.5,0.5v7l3.2,3.1l1.3,0.6
		l1.3,1l-1.3,0.3l-0.8-0.3l-3.7-0.5l-2.1,0.6l-2.3-0.2L662-32h-1.8l-5.8-1.3l-5.2,0.2l-1.9,2.6l-7,0.6l-2.4,0.8l-1.1,3.1l-1.3,1.1
		L635-25l-1.5-1.6l-4.5,2.4h-0.6l-1.1-1.6l-0.8,0.2l-1.9,4.4l-1,4l-3.2,7l-1.2-1l-1.4-1l-1.9-10.3l-3.5-1.4l-2.1-2.3L598.1-29
		l-2.9-1l-8.2-2.2l-7.9-1.1L575.4-38.5z"/>
	
		<linearGradient id="WY_1_" gradientUnits="userSpaceOnUse" x1="173.1258" y1="712.6907" x2="173.1258" y2="711.6907" gradientTransform="matrix(120.8261 0 0 -100.9588 -20616.3125 71933.2031)">
		<stop  offset="0" style="stop-color:#FFFF00"/>
		<stop  offset="1" style="stop-color:#FF0000"/>
	</linearGradient>
	<path id="WY" fill="url(#WY_1_)" d="M362.2-6l-10.5-0.8l-32.1-3.3l-16.2-2.1L275-16.2l-19.9-3L253.7-8l-3.8,24.3l-5.3,30.4
		l-1.5,10.5L241.4,69l6.5,0.9l25.9,2.5l20.6,2.3l36.8,4.1l23.8,2.9l4.5-44.2l1.4-25.4L362.2-6z"/>
	
		<linearGradient id="MT_1_" gradientUnits="userSpaceOnUse" x1="173.5627" y1="712.6185" x2="173.5627" y2="711.6185" gradientTransform="matrix(177.1595 0 0 -112.7424 -30467.0215 80222.9141)">
		<stop  offset="0" style="stop-color:#FFFF00"/>
		<stop  offset="1" style="stop-color:#FF0000"/>
	</linearGradient>
	<path id="MT" fill="url(#MT_1_)" d="M364.6-27.5l0.6-11.2l2.3-24.8c0.5-5,1.1-8.5,1.4-15.4l0.9-14.6l-30.7-2.8l-29.3-3.6l-29.3-4
		l-32.3-5.3l-18.4-3.4l-32.7-6.9l-4.5,21.3l3.4,7.5l-1.4,4.6l1.8,4.6l3.2,1.4l4.6,10.8l2.7,3.2l0.5,1.1l3.4,1.1l0.5,2.1l-7.1,17.6
		v2.5l2.5,3.2h0.9l4.8-3l0.7-1.1l1.6,0.7l-0.2,5.3l2.7,12.6l3,2.5l0.9,0.7l1.8,2.3l-0.5,3.4l0.7,3.4l1.1,0.9l2.3-2.3h2.7l3.2,1.6
		l2.5-0.9h4.1l3.7,1.6l2.7-0.5l0.5-3l3-0.7l1.4,1.4l0.5,3.2l1.8,1.4l1.5-11.6l20.7,3l28.2,4l16.6,1.9l31.4,3.5l11,1.5l1.1-15.4
		L364.6-27.5z"/>
	
		<linearGradient id="ID_1_" gradientUnits="userSpaceOnUse" x1="172.9015" y1="712.4171" x2="172.9015" y2="711.4171" gradientTransform="matrix(103.8757 0 0 -167.1957 -17759.3965 118990.9531)">
		<stop  offset="0" style="stop-color:#FFFF00"/>
		<stop  offset="1" style="stop-color:#FF0000"/>
	</linearGradient>
	<path id="ID" fill="url(#ID_1_)" d="M170.1,31.2c-22.6-4.3-14.1-2.8-21.1-4.4l4.4-17.5l4.3-17.7l1.4-4.2l2.5-5.9l-1.3-2.3l-2.5,0.1
		l-0.8-1l0.5-1.1l0.3-3.1l4.5-5.5l1.8-0.5l1.1-1.1l0.6-3.2l0.9-0.7l3.9-5.8l3.9-4.3l0.2-3.8l-3.4-2.6l-1.3-4.4l0.4-9.7l3.7-16.5
		l4.5-20.8l3.8-13.5l0.8-3.8l13,2.5l-4.2,21.5l2.9,7.7l-1.1,4.6l2,4.6l3.2,1.7l4.5,9.8l2.7,3.8l0.6,1.1l3.4,1.1l0.5,2.5l-6.9,16.8
		L204-41l2.7,2.9l1.9,0.5l4.8-3.6l0.4-0.5l0.2,0.8l0.3,4.1l2.6,12.9l3.5,2.7l0.4,0.8l2.1,2.4l-0.8,2.8l0.7,3.8l1.9,0.9l2.1-1.6
		l2.6-0.5l3.4,1.6l2.5-0.6l3.8-0.2l4,1.6l2.7-0.3l0.9-2.3l2.5-1.6l0.7,1.7l0.6,2.2l2.3,2.5l-3.8,24l-5.1,29l-4.2-0.3l-8.2-1.5
		l-9.8-1.8L209.6,39l-12.5-2.5l-8.5-1.8l-9.3-1.7L170.1,31.2z"/>
	
		<linearGradient id="WA_1_" gradientUnits="userSpaceOnUse" x1="173.069" y1="712.8217" x2="173.069" y2="711.8217" gradientTransform="matrix(116.0368 0 0 -84.871 -19958.0645 60354.5352)">
		<stop  offset="0" style="stop-color:#FFFF00"/>
		<stop  offset="1" style="stop-color:#FF0000"/>
	</linearGradient>
	<path id="WA" fill="url(#WA_1_)" d="M101.5-143.4l4.4,1.5l9.7,2.7l8.6,1.9l20,5.7l23,5.7l15.2,3.4l-1,3.9l-4.1,13.8L172.8-84
		l-3.2,16.1l-0.4,9.4l-13.2-3.9l-15.6-3.4l-13.7,0.6l-1.6-1.5l-5.3,1.9l-4-0.3l-2.7-1.8l-1.6,0.5l-4.2-0.2l-1.9-1.4l-4.8-1.7
		l-1.4-0.2l-5-1.3l-1.8,1.5L86.9-70l-4.8-3.8l0.2-0.8l0.1-7.9l-2.1-3.9l-4.1-0.7l-0.4-2.4l-2.5-0.6l-2.9-0.5l-1.8,1l-2.3-2.9
		l0.3-2.9l2.7-0.3l1.6-4l-2.6-1.1l0.2-3.7l4.4-0.6l-2.7-2.7l-1.5-7.1l0.6-2.9v-7.9l-1.8-3.2l2.3-9.4l2.1,0.5l2.4,2.9l2.7,2.6
		l3.2,1.9l4.5,2.1L88-128l2.9,1.5l3.4,1l2.3-0.2v-2.4l1.3-1.1l2.1-1.3l0.3,1.1l0.3,1.8l-2.3,0.5l-0.3,2.1l1.8,1.5l1.1,2.4l0.6,1.9
		l1.5-0.2l0.2-1.3l-1-1.3l-0.5-3.2l0.8-1.8l-0.6-1.5v-2.3l1.8-3.6l-1.1-2.6l-2.4-4.8l0.3-0.8L101.5-143.4z M92.1-137.4l2-0.2
		l0.5,1.4l1.5-1.6h2.3l0.8,1.5l-1.5,1.7l0.6,0.8l-0.7,2l-1.4,0.4c0,0-0.9,0.1-0.9-0.2s1.5-2.6,1.5-2.6l-1.7-0.6l-0.3,1.5l-0.7,0.6
		l-1.5-2.3L92.1-137.4z"/>
	
		<linearGradient id="TX_1_" gradientUnits="userSpaceOnUse" x1="173.8166" y1="712.2925" x2="173.8166" y2="711.2925" gradientTransform="matrix(242.9775 0 0 -238.3716 -41821.0508 169973.9219)">
		<stop  offset="0" style="stop-color:#FFFF00"/>
		<stop  offset="1" style="stop-color:#FF0000"/>
	</linearGradient>
	<path id="TX" fill="url(#TX_1_)" d="M365,183.6l22.7,1.1l31.1,1.1l-2.3,23.5l-0.3,18.2l0.1,2.1l4.3,3.8l1.7,0.8l1.8,0.3l0.7-1.3
		l0.9,0.9l1.7,0.5l1.6-0.7l1.1,0.4l-0.3,3.4l4.3,1l2.7,0.8l4,0.5l2.2,1.8l3.2-1.6l2.8,0.4l2,2.8l1.1,0.3l-0.2,2l3.1,1.2l2.8-1.8
		l1.5,0.4l2.4,0.2l0.4,1.9l4.6,2l2.7-0.2l2-4.1h0.3l1.1,1.9l4.4,1l3.3,1.2l3.3,0.8l2.1-0.8l0.8-2.5h3.7l1.9,0.8l3.1-1.6h0.7l0.4,1.1
		h4.3l2.4-1.3l1.7,0.3l1.4,1.9l2.9,1.7l3.5,1.1l2.7,1.4l2.4,1.6l3.3-0.9l1.9,1l0.5,10.1l0.3,9.7l0.7,9.5l0.5,4l2.7,4.6l1.1,4.1
		l3.9,6.3l0.5,2.9l0.5,1l-0.7,7.5l-2.7,4.4l1,2.9l-0.4,2.5l-0.8,7.3l-1.4,2.7l0.6,4.4l-5.7,1.6l-9.9,4.5l-1,1.9l-2.6,1.9l-2.1,1.5
		l-1.3,0.8l-5.7,5.3l-2.7,2.1l-5.3,3.2l-5.7,2.4l-6.3,3.4l-1.8,1.5l-5.8,3.6l-3.4,0.6l-3.9,5.5l-4,0.3l-1,1.9l2.3,1.9l-1.5,5.5
		l-1.3,4.5l-1.1,3.9l-0.8,4.5l0.8,2.4l1.8,7l1,6.1l1.8,2.7l-1,1.5l-3.1,1.9l-5.7-3.9l-5.5-1.1l-1.3,0.5l-3.2-0.6l-4.2-3.1l-5.2-1.1
		l-7.6-3.4l-2.1-3.9l-1.3-6.5l-3.2-1.9l-0.6-2.3l0.6-0.6l0.3-3.4l-1.3-0.6l-0.6-1l1.3-4.4l-1.6-2.3l-3.2-1.3l-3.4-4.4l-3.6-6.6
		l-4.2-2.6l0.2-1.9l-5.3-12.3l-0.8-4.2l-1.8-1.9l-0.2-1.5l-6-5.3l-2.6-3.1v-1.1l-2.6-2.1l-6.8-1.1l-7.4-0.6l-3.1-2.3l-4.5,1.8
		l-3.6,1.5l-2.3,3.2l-1,3.7l-4.4,6.1l-2.4,2.4l-2.6-1l-1.8-1.1L344,346l-3.9-2.3v-0.6l-1.8-1.9l-5.2-2.1l-7.4-7.8l-2.3-4.7v-8.1
		l-3.2-6.5l-0.5-2.7l-1.6-1l-1.1-2.1l-5-2.1l-1.3-1.6l-7.1-7.9l-1.3-3.2l-4.7-2.3l-1.5-4.4l-2.6-2.9l-1.9-0.5l-0.6-4.7l8,0.7l29,2.7
		l29,1.6l2.3-23.8l3.9-55.6l1.6-18.7l1.4,0 M465.2,417.6l-0.6-7.1l-2.7-7.2l-0.6-7l1.5-8.2l3.3-6.9l3.5-5.4l3.2-3.6l0.6,0.2
		l-4.8,6.6l-4.4,6.5l-2,6.6l-0.3,5.2l0.9,6.1l2.6,7.2l0.5,5.2l0.2,1.5L465.2,417.6z"/>
	
		<linearGradient id="CA_1_" gradientUnits="userSpaceOnUse" x1="173.309" y1="712.2918" x2="173.309" y2="711.2918" gradientTransform="matrix(139.4153 0 0 -238.9751 -24070.2285 170218.0625)">
		<stop  offset="0" style="stop-color:#FFFF00"/>
		<stop  offset="1" style="stop-color:#FF0000"/>
	</linearGradient>
	<path id="CA" fill="url(#CA_1_)" d="M144.7,237l3.8-0.5l1.5-2l0.7-1.9l-3.2-0.1l-1.1-1.8l0.8-1.7l0-6.2l2.2-1.3l2.7-2.6l0.4-4.9
		l1.6-3.5l1.9-2.1l3.3-1.7l1.3-0.7l0.8-1.5l-0.9-0.9l-1-1.5l-0.9-5.3l-2.9-5.2l0.1-2.8l-2.2-3.2l-15-23.2l-19.4-28.7l-22.4-33
		L84.1,81l1.8-7.2l6.8-25.9l8.1-31.4L88.4,13L74.9,9.6L62.4,5.5l-7.5-2.1l-11.4-3L36.3-2l-1.6,4.7l-0.2,7.4L29.4,22l-3.1,2.6
		L26,25.7l-1.8,0.8l-1.5,4.2L22,34l2.7,4.2l1.6,4.2l1.1,3.6l-0.3,6.5l-1.8,3.1l-0.6,5.8l-1,3.7l1.8,3.9l2.7,4.5l2.3,4.8l1.3,4
		l-0.3,3.2L31.2,86v2.1l5.7,6.3l-0.5,2.4l-0.6,2.3l-0.6,1.9l0.2,8.2l2.1,3.7l1.9,2.6l2.7,0.5l1,2.7l-1.1,3.6l-2.1,1.6h-1.1l-0.8,3.9
		l0.5,2.9l3.2,4.4l1.6,5.3l1.5,4.7l1.3,3.1l3.4,5.8l1.5,2.6l0.5,2.9l1.6,1v2.4l-0.8,1.9l-1.8,7.1l-0.5,1.9l2.4,2.7l4.2,0.5L61,179
		l3.9,2.1h2.9l2.9,3.1l2.6,4.8l1.1,2.3l3.9,2.1l4.8,0.8l1.5,2.1l0.6,3.2l-1.5,0.6l0.3,1l3.2,0.8l2.7,0.2l2.9,4.7l3.9,4.2l0.8,2.3
		l2.6,4.2l0.3,3.2v9.4l0.5,1.8l10,1.5l19.7,2.7L144.7,237z M56.8,187.3l1.3,1.5l-0.2,1.3l-3.2-0.1l-0.6-1.2l-0.6-1.5L56.8,187.3z
		 M58.7,187.3l1.2-0.6l3.6,2.1l3.1,1.2l-0.9,0.6l-4.5-0.2l-1.6-1.6L58.7,187.3z M79.4,207.1l1.8,2.3l0.8,1l1.5,0.6l0.6-1.5l-1-1.8
		l-2.7-2l-1.1,0.2V207.1z M77.9,215.8l1.8,3.2l1.2,1.9l-1.5,0.2l-1.3-1.2c0,0-0.7-1.5-0.7-1.9s0-2.2,0-2.2L77.9,215.8z"/>
	
		<linearGradient id="AZ_1_" gradientUnits="userSpaceOnUse" x1="173.0925" y1="712.5047" x2="173.0925" y2="711.5047" gradientTransform="matrix(117.9673 0 0 -138.1656 -20217.5195 98589.8281)">
		<stop  offset="0" style="stop-color:#FFFF00"/>
		<stop  offset="1" style="stop-color:#FF0000"/>
	</linearGradient>
	<path id="AZ" fill="url(#AZ_1_)" d="M145.7,237.8l-2.6,2.2l-0.3,1.5l0.5,1l18.9,10.7l12.1,7.6l14.7,8.6l16.8,10l12.3,2.4l25.1,2.7
		l2.5-12.5l3.8-27.2l7-52.9l4.3-31l-24.6-3.7l-27.2-4.6l-33.4-6.3l-2.9,18.1l-0.5,0.5l-1.7,2.6l-2.5-0.1l-1.3-2.7l-2.7-0.3L163,163
		h-0.9l-0.9,0.6l-1.9,1l-0.1,7l-0.2,1.7l-0.6,12.6l-1.5,2.2l-0.6,3.3l2.7,4.9l1.3,5.8l0.8,1l1,0.6l-0.1,2.3l-1.6,1.4l-3.4,1.7
		L155,211l-1.5,3.7l-0.6,4.9l-2.9,2.7L148,223l-0.1,5.8l-0.5,1.7l0.5,0.8l3.7,0.6l-0.6,2.7l-1.5,2.2L145.7,237.8z"/>
	
		<linearGradient id="NV_1_" gradientUnits="userSpaceOnUse" x1="172.9904" y1="712.4094" x2="172.9904" y2="711.4094" gradientTransform="matrix(109.9879 0 0 -170.3257 -18886.6602 121358.3828)">
		<stop  offset="0" style="stop-color:#FFFF00"/>
		<stop  offset="1" style="stop-color:#FF0000"/>
	</linearGradient>
	<path id="NV" fill="url(#NV_1_)" d="M148.6,27.8l21,4.5l9.7,1.9l9.3,1.8l6.6,1.6l-0.6,5.9l-3.5,17.3l-4.1,20l-1.9,9.7l-2.2,13.3
		l-3.2,16.4l-3.5,15.7l-2,10.2l-2.5,16.8l-0.5,1.1l-1.1,2.5l-1.9-0.1l-1.1-2.7l-2.7-0.5l-1.4-1l-2,0.3l-0.9,0.7l-1.3,1.3l-0.4,7
		l-0.5,1.7l-0.4,12.1l-1.3,1.7l-1.9-2.3l-14.5-22.7l-19.4-29L97.6,99.2L85.2,80.6l1.6-6.6l7-25.9l7.9-31.3l33.6,8.1l13.7,3"/>
	
		<linearGradient id="UT_1_" gradientUnits="userSpaceOnUse" x1="172.7759" y1="712.5746" x2="172.7759" y2="711.5746" gradientTransform="matrix(96.3092 0 0 -121.3655 -16415.8594 86520.1719)">
		<stop  offset="0" style="stop-color:#FFFF00"/>
		<stop  offset="1" style="stop-color:#FF0000"/>
	</linearGradient>
	<path id="UT" fill="url(#UT_1_)" d="M260.9,159.6l-24.6-3.5l-26.6-4.9l-33.8-6l1.6-9.2l3.2-15.2l3.3-16.6l2.2-13.6l1.9-8.9
		l3.8-20.5l3.5-17.5l1.1-5.6l12.7,2.3l12,2.1l10.3,1.8l8.3,1.4l3.7,0.5l-1.5,10.6L239.8,70l7.8,0.9l16.4,1.8l8.2,0.9l-2.1,22
		l-3.2,22.6l-3.8,27.8l-1.7,11.1L260.9,159.6z"/>
	
		<linearGradient id="CO_1_" gradientUnits="userSpaceOnUse" x1="173.1806" y1="712.7079" x2="173.1806" y2="711.7079" gradientTransform="matrix(125.8524 0 0 -98.5122 -21470.1074 70283.8047)">
		<stop  offset="0" style="stop-color:#FFFF00"/>
		<stop  offset="1" style="stop-color:#FF0000"/>
	</linearGradient>
	<path id="CO" fill="url(#CO_1_)" d="M386.6,107.1l1.4-21.3l-32.1-3.1L331.5,80l-37.3-4.1l-20.7-2.5l-2.6,22.2l-3.2,22.4l-3.8,28
		l-1.5,11.1l-0.3,2.8l33.9,3.8l37.7,4.3l32,3.2l16.6,0.8"/>
	
		<linearGradient id="NM_1_" gradientUnits="userSpaceOnUse" x1="173.1231" y1="712.5527" x2="173.1231" y2="711.5527" gradientTransform="matrix(120.588 0 0 -126.1805 -20571.4531 90071.1641)">
		<stop  offset="0" style="stop-color:#FFFF00"/>
		<stop  offset="1" style="stop-color:#FF0000"/>
	</linearGradient>
	<path id="NM" fill="url(#NM_1_)" d="M290.7,281.3l-0.7-6.1l8.6,0.5l29.5,3.1l28.4,1.4l2-22.3l3.7-55.9l1.1-19.4l2,0.3l0-11.1
		l-32.2-2.4l-36.9-4.4l-34.5-4.1l-4.2,30.8l-7,53.2l-3.8,26.9l-2,13.3l15.5,2l1.3-10l16.7,2.6L290.7,281.3z"/>
	
		<linearGradient id="OR_1_" gradientUnits="userSpaceOnUse" x1="173.3124" y1="712.6005" x2="173.3124" y2="711.6005" gradientTransform="matrix(139.8189 0 0 -116.1254 -24128.3223 82661.8438)">
		<stop  offset="0" style="stop-color:#FFFF00"/>
		<stop  offset="1" style="stop-color:#FF0000"/>
	</linearGradient>
	<path id="OR" fill="url(#OR_1_)" d="M148.3,27L152.6,9l4.7-17.9l1.1-4.2l2.4-5.6l-0.6-1.2l-2.5,0l-1.3-1.7l0.5-1.5l0.5-3.2l4.5-5.5
		l1.8-1.1l1.1-1.1l1.5-3.6l4-5.7l3.6-3.9l0.2-3.5l-3.3-2.5l-1.2-4.5l-13.2-3.7l-15.1-3.5l-15.4,0.1l-0.5-1.4l-5.5,2.1l-4.5-0.6
		l-2.4-1.6l-1.3,0.7l-4.7-0.2l-1.7-1.4l-5.3-2.1L99.2-69l-4.3-1.5l-1.9,1.8L86.7-69l-5.9-4.1l0.7-0.8l0.2-7.8l-2.3-3.9l-4.1-0.6
		l-0.7-2.5l-2.4-0.5l-5.8,2.1l-2.3,6.5l-3.2,10l-3.2,6.5l-5,14.1l-6.5,13.6l-8.1,12.6L36.2-21l-0.8,8.6l-1.3,6l2.7,3.5l6.7,2.3
		l11.6,3.3L63,5.2l12.4,3.6l13.3,3.6l13.2,3.6"/>
	
		<linearGradient id="ND_1_" gradientUnits="userSpaceOnUse" x1="173.0372" y1="712.9848" x2="173.0372" y2="711.9848" gradientTransform="matrix(113.5101 0 0 -70.8126 -19218.9688 50395.3984)">
		<stop  offset="0" style="stop-color:#FFFF00"/>
		<stop  offset="1" style="stop-color:#FF0000"/>
	</linearGradient>
	<path id="ND" fill="url(#ND_1_)" d="M479.3-22.1l-0.4-7.5l-2-7.3l-1.8-13.6l-0.5-9.8l-2-3.1l-1.6-5.4v-10.3l0.7-3.9l-2.1-5.5
		l-28.4-0.6l-18.6-0.6L396.1-91l-24.9-1.9l-1.3,14.2l-1.4,15.1l-2.3,24.9l-0.5,11l56.8,3.8L479.3-22.1z"/>
	
		<linearGradient id="SD_1_" gradientUnits="userSpaceOnUse" x1="173.1284" y1="712.8644" x2="173.1284" y2="711.8644" gradientTransform="matrix(121.0535 0 0 -80.6796 -20536.9941 57486.8672)">
		<stop  offset="0" style="stop-color:#FFFF00"/>
		<stop  offset="1" style="stop-color:#FF0000"/>
	</linearGradient>
	<path id="SD" fill="url(#SD_1_)" d="M480.8,53.4l-1-1.1l-1.5-3.6l1.8-3.7l1.1-5.6l-2.6-2.1l-0.3-2.7l0.6-3l2.1-0.8l0.3-5.7
		l-0.1-30.1l-0.6-3l-4.1-3.6l-1-2v-1.9l1.9-1.3l1.5-1.9l0.2-2.7l-57.4-1.6l-56.2-3.9l-0.8,5.3l-1.6,15.9l-1.3,17.9l-1.6,24.6l16,1
		l19.6,1.1l18,1.3l23.8,1.3l10.7-0.8l2.9,2.3l4.3,3l1,0.8l3.5-0.9l4-0.3l2.7-0.1l3.1,1.2l4.5,1.4l3.1,1.8l0.6,1.9l0.9,1.9l0.7-0.5
		L480.8,53.4z"/>
	
		<linearGradient id="NE_1_" gradientUnits="userSpaceOnUse" x1="173.3374" y1="712.984" x2="173.3374" y2="711.984" gradientTransform="matrix(142.8166 0 0 -70.8708 -24328.1211 50567.8125)">
		<stop  offset="0" style="stop-color:#FFFF00"/>
		<stop  offset="1" style="stop-color:#FF0000"/>
	</linearGradient>
	<path id="NE" fill="url(#NE_1_)" d="M492.2,97.3l1.4,2.7l0.1,2.1l2.4,3.7l2.7,3.2h-5l-43.5-0.9l-40.8-0.9l-21.2-1l1.1-21.3
		l-33.4-2.7l4.3-44l15.5,1l20.1,1.1l17.8,1.1l23.8,1.1l10.7-0.5l2.1,2.3l4.8,3l1.1,0.9l4.3-1.4l3.9-0.5l2.7-0.2l1.8,1.4l5,1.6l3,1.6
		l0.5,1.6l0.9,2.1h1.8l0.8,0l1,5.2l2.7,8l1.2,4.6l2.1,3.8l0.5,4.9l1.4,4.3l0.5,6.5"/>
	
		<linearGradient id="IA_1_" gradientUnits="userSpaceOnUse" x1="172.9056" y1="713.0226" x2="172.9056" y2="712.0226" gradientTransform="matrix(104.1435 0 0 -68.1959 -17476.0039 48655.8438)">
		<stop  offset="0" style="stop-color:#FFFF00"/>
		<stop  offset="1" style="stop-color:#FF0000"/>
	</linearGradient>
	<path id="IA" fill="url(#IA_1_)" d="M574.6,51.9l0.2,1.9L577,55l1.1,1.3l0.3,1.3l3.9,3.2l0.7,2.2l-0.8,2.9l-1.5,3.5L580,72
		l-2.2,1.6l-1.7,0.6l-5.5,1.5l-0.7,2.3l-0.8,2.3l0.6,1.4l1.7,1.7l0,3.7l-2.2,1.6l-0.5,1.5v2.5l-1.5,0.5l-1.7,1.4l-0.5,1.5l0.5,1.7
		l-1.4,1.2l-2.3-2.7l-1.5-2.6l-8.3,0.8l-10.2,0.6l-25,0.7l-13,0.2l-9.4,0.2l-1.3,0.1l-1.7-4.5l-0.2-6.6l-1.6-4.1l-0.7-5.3l-2.3-3.7
		l-0.9-4.8l-2.7-7.5l-1.1-5.4l-1.4-2.2l-1.6-2.7l1.8-4.3l1.4-5.7l-2.7-2.1l-0.5-2.7l0.9-2.5h1.7h11.5l49.6-0.7l19.9-0.7l1.9,2.7
		l1.8,2.6l0.5,0.8l-1.8,2.7l0.5,4.2l2.5,3.9l3,1.8l2.4,0.2L574.6,51.9z"/>
	
		<linearGradient id="MS_1_" gradientUnits="userSpaceOnUse" x1="171.7882" y1="712.6426" x2="171.7882" y2="711.6426" gradientTransform="matrix(61.2307 0 0 -108.5114 -9916.8164 77544.7969)">
		<stop  offset="0" style="stop-color:#FFFF00"/>
		<stop  offset="1" style="stop-color:#FF0000"/>
	</linearGradient>
	<path id="MS" fill="url(#MS_1_)" d="M632.5,317.2l-0.3,1.3h-5.2l-1.5-0.8l-2.1-0.3l-6.8,1.9l-1.8-0.8l-2.6,4.2l-1.1,0.8l-1.1-2.5
		l-1.1-3.9l-3.4-3.2l1.1-7.5l-0.7-0.9l-1.8,0.2l-8.2,0.7l-24.2,0.7l-0.5-1.6l0.7-8l3.4-6.2l5.3-9.1l-0.9-2.1h1.1l0.7-3.2l-2.3-1.8
		l0.2-1.8l-2.1-4.6l-0.3-5.3l1.4-2.7l-0.4-4.3l-1.4-3l1.4-1.4l-1.4-2.1l0.5-1.8l0.9-6.2l3-2.7l-0.7-2.1l3.7-5.3l2.7-0.9v-2.5
		l-0.7-1.4l2.7-5.3l2.7-1.1l0.1-3.4l8.7-0.1l24.1-1.9l4.6-0.2l0,6.4l0.2,16.7l-0.8,31l-0.2,14.1l2.7,18.8L632.5,317.2z"/>
	
		<linearGradient id="IN_1_" gradientUnits="userSpaceOnUse" x1="171.3011" y1="712.769" x2="171.3011" y2="711.769" gradientTransform="matrix(51.9071 0 0 -90.6885 -8239.416 64700.3945)">
		<stop  offset="0" style="stop-color:#FFFF00"/>
		<stop  offset="1" style="stop-color:#FF0000"/>
	</linearGradient>
	<path id="IN" fill="url(#IN_1_)" d="M626.4,151.1l0.1-2.9l0.5-4.5l2.3-2.9l1.8-3.9l2.6-4.2l-0.5-5.8l-1.8-2.7l-0.3-3.2l0.8-5.5
		l-0.5-7l-1.3-16l-1.3-15.4l-1-11.7l3.1,0.9l1.5,1l1.1-0.3l2.1-1.9l2.8-1.6l5.1-0.2l22-2.3l5.6-0.5l1.5,16l4.3,36.8l0.6,5.8
		l-0.4,2.3l1.2,1.8l0.1,1.4l-2.5,1.6l-3.5,1.6l-3.2,0.6l-0.6,4.9l-4.6,3.3l-2.8,4l0.3,2.4l-0.6,1.5h-3.3l-1.6-1.6l-2.5,1.3l-2.7,1.5
		l0.2,3.1l-1.2,0.3l-0.5-1l-2.2-1.5l-3.3,1.3l-1.6,3l-1.4-0.8l-1.5-1.6l-4.5,0.5l-5.6,1L626.4,151.1z"/>
	
		<linearGradient id="IL_1_" gradientUnits="userSpaceOnUse" x1="172.1022" y1="712.5641" x2="172.1022" y2="711.5641" gradientTransform="matrix(69.2496 0 0 -123.6253 -11319.8711 88139.5)">
		<stop  offset="0" style="stop-color:#FFFF00"/>
		<stop  offset="1" style="stop-color:#FF0000"/>
	</linearGradient>
	<path id="IL" fill="url(#IL_1_)" d="M625.8,151.9v-3.6l0.3-4.9l2.4-3.1l1.8-3.8l2.6-3.9l-0.4-5.3l-2-3.5l-0.1-3.3l0.7-5.3l-0.8-7.2
		l-1.1-15.8l-1.3-15l-0.9-11.6l-0.3-0.9l-0.8-2.6l-1.3-3.7l-1.6-1.8l-1.5-2.6l-0.2-5.5l-9.9,1.3l-27.2,1.7l-8.7-0.4l0.2,2.4l2.3,0.7
		l0.9,1.1l0.5,1.8l3.9,3.4l0.7,2.3l-0.7,3.4l-1.8,3.7l-0.7,2.5l-2.3,1.8l-1.8,0.7l-5.3,1.4l-0.7,1.8l-0.7,2.1l0.7,1.4l1.8,1.6
		l-0.2,4.1l-1.8,1.6l-0.7,1.6v2.7l-1.8,0.5l-1.6,1.1l-0.2,1.4l0.2,2.1l-1.7,1.3l-1,2.8l0.5,3.7l2.3,7.3l7.3,7.5l5.5,3.7l-0.2,4.3
		l0.9,1.4l6.4,0.5l2.7,1.4l-0.7,3.7l-2.3,5.9l-0.7,3.2l2.3,3.9l6.4,5.3l4.6,0.7l2.1,5l2.1,3.2l-0.9,3l1.6,4.1l1.8,2.1l1.9-0.8
		l0.7-2.2l2-1.4l3.2-1.1l3.1,1.2l2.9,1.1l0.8-0.2l-0.1-1.2l-1.1-2.8l0.4-2.4l2.3-1.6l2.4-1l1.2-0.4l-0.6-1.3l-0.8-2.2l1.2-1.3
		L625.8,151.9z"/>
	
		<linearGradient id="MN_1_" gradientUnits="userSpaceOnUse" x1="173.0519" y1="712.5481" x2="173.0519" y2="711.5481" gradientTransform="matrix(114.6612 0 0 -127.2313 -19314.3047 90561.6016)">
		<stop  offset="0" style="stop-color:#FFFF00"/>
		<stop  offset="1" style="stop-color:#FF0000"/>
	</linearGradient>
	<path id="MN" fill="url(#MN_1_)" d="M479.8-21.3l-0.5-8.5l-1.8-7.3l-1.8-13.5l-0.5-9.8l-1.8-3.4l-1.6-5v-10.3l0.7-3.9l-1.8-5.5
		l30.1,0l0.3-8.2l0.6-0.2l2.3,0.5l1.9,0.8l0.8,5.5l1.5,6.1l1.6,1.6h4.8l0.3,1.5l6.3,0.3v2.1h4.8l0.3-1.3l1.1-1.1l2.3-0.6l1.3,1h2.9
		l3.9,2.6l5.3,2.4l2.4,0.5l0.5-1l1.5-0.5l0.5,2.9l2.6,1.3l0.5-0.5l1.3,0.2v2.1l2.6,1h3.1l1.6-0.8l3.2-3.2l2.6-0.5l0.8,1.8L567-71h1
		l1-0.8l8.9-0.3l1.8,3.1h0.6l0.7-1.1l4.4-0.4l-0.6,2.3l-3.9,1.8l-9.2,4.1l-4.8,2l-3.1,2.6l-2.4,3.6l-2.3,3.9l-1.8,0.8l-4.5,5
		l-1.3,0.2l-3.8,2.9l-2.8,3.2l-0.2,3l0.2,7.8l-1.6,1.6l-5.3,4.1l-1.8,5.7l2.5,3.6l0.5,2.5l-1.1,3l-0.2,3.7l0.5,7.1l3.4,4.1h3
		l2.5,2.3l3.2,1.4l3.7,5l7.1,5l1.8,2.1l0.2,5.5L542.5,30l-60.2,0.5l-0.3-35.7l-0.5-3l-4.1-3.4l-1.1-1.8v-1.6l2.1-1.6l1.4-1.4
		L479.8-21.3z"/>
	
		<linearGradient id="WI_1_" gradientUnits="userSpaceOnUse" x1="172.6863" y1="712.7237" x2="172.6863" y2="711.7237" gradientTransform="matrix(91.5516 0 0 -96.3567 -15226.9502 68629.6797)">
		<stop  offset="0" style="stop-color:#FFFF00"/>
		<stop  offset="1" style="stop-color:#FF0000"/>
	</linearGradient>
	<path id="WI" fill="url(#WI_1_)" d="M620.9,47.4l0.4-3l-1.6-4.5l-0.6-6.1l-1.1-2.4l1-3.1l0.8-2.9l1.5-2.6l-0.6-3.4l-0.6-3.6
		l0.5-1.8l1.9-2.4l0.2-2.7l-0.8-1.3l0.6-2.6l0.5-3.2l2.7-5.7l2.9-6.8l0.2-2.3l-0.3-1l-0.8,0.5l-4.2,6.3l-2.7,4l-1.9,1.8L617.7,1
		l-1.5,0.8l-1.1,1.9l-1.5-0.3l-0.2-1.8l1.3-2.4l2.1-4.7l1.8-1.6l1.1-2.3l-1.6-0.9l-1.4-1.4L615.2-22l-3.7-1.1l-1.4-2.3l-12.6-2.7
		l-2.5-1.1l-8.2-2.3l-8.2-1.1l-4.2-5.4l-0.5,1.3l-1.1-0.2l-0.6-1.1l-2.7-0.8l-1.1,0.2l-1.8,1l-1-0.6l0.6-1.9l1.9-3.1l1.1-1.1
		l-1.9-1.5l-2.1,0.8l-2.9,1.9l-7.4,3.2l-2.9,0.6l-2.9-0.5l-1-0.9l-2.1,2.8l-0.2,2.7v8.5l-1.1,1.6l-5.3,3.9l-2.3,5.9l0.5,0.2L540-13
		l0.7,3.2l-1.8,3.2v3.9l0.5,6.6l3,3h3.4l1.8,3.2l3.4,0.5l3.9,5.7l7.1,4.1l2.1,2.7l0.9,7.4l0.7,3.3l2.3,1.6l0.2,1.4l-2.1,3.4l0.2,3.2
		l2.5,3.9l2.5,1.1l3,0.5l1.3,1.4l9.2,0l26.1-1.5L620.9,47.4z"/>
	
		<linearGradient id="MO_1_" gradientUnits="userSpaceOnUse" x1="173.0548" y1="712.6909" x2="173.0548" y2="711.6909" gradientTransform="matrix(114.8913 0 0 -100.9427 -19331.5977 72035.3906)">
		<stop  offset="0" style="stop-color:#FFFF00"/>
		<stop  offset="1" style="stop-color:#FF0000"/>
	</linearGradient>
	<path id="MO" fill="url(#MO_1_)" d="M563.7,99.8l-2.5-3.1l-1.1-2.3l-7.8,0.7l-9.8,0.5l-25.4,0.9l-13.5,0.2l-7.9,0.1l-2.3,0.1
		l1.3,2.5l-0.2,2.3l2.5,3.9l3.1,4.1l3.1,2.7l2.3,0.2l1.4,0.9v3l-1.8,1.6l-0.5,2.3l2.1,3.4l2.5,3l2.5,1.8l1.4,11.7l-0.7,35.3l0.2,4.7
		l0.5,5.4l23.4-0.1l23.2-0.7l20.8-0.8l11.7-0.2l2.2,3.4l-0.7,3.3l-3.1,2.4l-0.6,1.8l5.4,0.5l3.9-0.7l1.7-5.5l0.7-5.9l2.3-2l1.7-1.5
		l2.1-1l0.1-2.9l0.6-1.7l-1-1.7l-2.7,0.1l-2.2-2.6l-1.4-4.2l0.8-2.5l-1.9-3.4l-1.8-4.6l-4.8-0.8l-7-5.6l-1.7-4.1l0.8-3.2l2.1-6.1
		l0.5-2.9l-1.9-1l-6.9-0.8l-1-1.7l-0.1-4.2l-5.5-3.4l-7-7.8l-2.3-7.3l-0.2-4.2L563.7,99.8z"/>
	
		<linearGradient id="AR_1_" gradientUnits="userSpaceOnUse" x1="172.5675" y1="712.8889" x2="172.5675" y2="711.8889" gradientTransform="matrix(85.9228 0 0 -78.4529 -14271.542 56112.8906)">
		<stop  offset="0" style="stop-color:#FFFF00"/>
		<stop  offset="1" style="stop-color:#FF0000"/>
	</linearGradient>
	<path id="AR" fill="url(#AR_1_)" d="M598.9,195.2l-3.8,0.9l-6.2-0.5l0.7-3l3.2-2.7l0.5-2.3l-1.8-3l-11,0.5l-20.8,0.9l-23.3,0.7
		l-23.3,0.5l1.6,6.9v8.2l1.4,11l0.2,37.8l2.3,1.9l3-1.4l2.7,1.1l0.4,10.3l22.9-0.1l18.9-0.8l10.1-0.2l1.1-2.1l-0.3-3.5l-1.8-3
		l1.6-1.5l-1.6-2.5l0.7-2.5l1.4-5.6l2.5-2.1l-0.7-2.3l3.7-5.4l2.7-1.4l-0.1-1.5l-0.3-1.8l2.9-5.6l2.4-1.3l0.4-3.4l1.8-1.2l0.9-4.2
		l-1.3-4l4-2.4l0.6-2l1.2-4.3L598.9,195.2z"/>
	
		<linearGradient id="OK_1_" gradientUnits="userSpaceOnUse" x1="173.3905" y1="712.8815" x2="173.3905" y2="711.8815" gradientTransform="matrix(149.649 0 0 -79.1078 -25507.1406 56566.375)">
		<stop  offset="0" style="stop-color:#FFFF00"/>
		<stop  offset="1" style="stop-color:#FF0000"/>
	</linearGradient>
	<path id="OK" fill="url(#OK_1_)" d="M383.3,172.8l-10.7-0.5l-6.4-0.5l0.3,0.2l-0.7,10.4l22,1.4l32.1,1.3l-2.3,24.4l-0.5,17.8
		l0.2,1.6l4.3,3.7l2.1,1.1l0.7-0.2l0.7-2.1l1.4,1.8h2.1V232l2.7,1.4l-0.5,3.9l4.1,0.2l2.5,1.1l4.1,0.7l2.5,1.8l2.3-2.1l3.4,0.7
		l2.5,3.4h0.9v2.3l2.3,0.7l2.3-2.3l1.8,0.7h2.5l0.9,2.5l4.8,1.8l1.4-0.7l1.8-4.1h1.1l1.1,2.1l4.1,0.7l3.7,1.4l3,0.9l1.8-0.9l0.7-2.5
		h4.3l2.1,0.9l2.7-2.1h1.1l0.7,1.6h4.1l1.6-2.1l1.8,0.5l2.1,2.5l3.2,1.8l3.2,0.9l1.9,1.1l-0.4-37.2l-1.4-11l-0.2-8.9l-1.4-6.5
		l-0.8-7.2l-0.1-3.8l-12.1,0.3l-46.4-0.5l-45-2.1L383.3,172.8z"/>
	
		<linearGradient id="KS_1_" gradientUnits="userSpaceOnUse" x1="173.2086" y1="713.0181" x2="173.2086" y2="712.0181" gradientTransform="matrix(128.5804 0 0 -68.4922 -21823.5117 48943.3242)">
		<stop  offset="0" style="stop-color:#FFFF00"/>
		<stop  offset="1" style="stop-color:#FF0000"/>
	</linearGradient>
	<path id="KS" fill="url(#KS_1_)" d="M511.3,175.4l-12.6,0.2l-46.1-0.5l-44.6-2.1l-24.6-1.3l4.1-64.7l21.8,0.8l40.5,1.4l44.1,0.5
		h5.1l3.2,3.2l2.8,0.2l0.9,1.1v2l-1.8,1.6l-0.5,2.6l2.2,3.6l2.5,3.1l2.5,2l1.1,11.2L511.3,175.4z"/>
	
		<linearGradient id="LA_1_" gradientUnits="userSpaceOnUse" x1="172.8147" y1="712.8032" x2="172.8147" y2="711.8032" gradientTransform="matrix(98.524 0 0 -86.8239 -16452.2949 62151.4141)">
		<stop  offset="0" style="stop-color:#FFFF00"/>
		<stop  offset="1" style="stop-color:#FF0000"/>
	</linearGradient>
	<path id="LA" fill="url(#LA_1_)" d="M610.2,323.3l-1-2.6l-1.1-3.1l-3.3-3.5l0.9-6.8l-0.1-1.1l-1.3,0.3l-8.2,0.9l-25,0.5l-0.7-2.4
		l0.9-8.5l3.3-5.9l5-8.7l-0.6-2.4l1.3-0.7l0.5-2l-2.3-2.1l-0.1-1.9l-1.8-4.3L576,263l-9.7,0.1l-19.2,0.9l-22.2,0l0,9.6l0.7,9.4
		l0.7,3.9l2.5,4.1l0.9,5l4.3,5.5l0.2,3.2l0.7,0.7l-0.7,8.5l-3,5l1.6,2.1l-0.7,2.5l-0.7,7.3l-1.4,3.2l0.1,3.6l4.7-1.5l8.1-0.3
		l10.3,3.6l6.5,1.1l3.7-1.5l3.2,1.1l3.2,1l0.8-2.1l-3.2-1.1l-2.6,0.5l-2.7-1.6c0,0,0.2-1.3,0.8-1.5c0.6-0.2,3.1-1,3.1-1l1.8,1.5
		l1.8-1l3.2,0.6l1.5,2.4l0.3,2.3l4.5,0.3l1.8,1.8l-0.8,1.6l-1.3,0.8l1.6,1.6l8.4,3.6l3.6-1.3l1-2.4l2.6-0.6l1.8-1.5l1.3,1l0.8,2.9
		l-2.3,0.8l0.6,0.6l3.4-1.3l2.3-3.4l0.8-0.5l-2.1-0.3l0.8-1.6l-0.2-1.5l2.1-0.5l1.1-1.3l0.6,0.8c0,0-0.2,3.1,0.6,3.1
		c0.8,0,4.2,0.6,4.2,0.6l4,1.9l1,1.5h2.9l1.1,1l2.3-3.1v-1.5h-1.3l-3.4-2.7l-5.8-0.8l-3.2-2.3l1.1-2.7l2.3,0.3l0.2-0.6l-1.8-1V333
		h3.2l1.8-3.1l-1.3-1.9l-0.3-2.7l-1.5,0.2l-1.9,2.1l-0.6,2.6l-3.1-0.6l-1-1.8l1.8-1.9l2-1.8L610.2,323.3z"/>
	
		<linearGradient id="VA_1_" gradientUnits="userSpaceOnUse" x1="173.2566" y1="712.9467" x2="173.2566" y2="711.9467" gradientTransform="matrix(133.5422 0 0 -73.6613 -22360.6641 52612.3086)">
		<stop  offset="0" style="stop-color:#FFFF00"/>
		<stop  offset="1" style="stop-color:#FF0000"/>
	</linearGradient>
	<path id="VA" fill="url(#VA_1_)" d="M836.9,119.5l-0.1-1.9l6.5-2.5l-0.8,3.2l-2.9,3.8l-0.4,4.6l0.5,3.4l-1.8,5l-2.2,1.9l-1.5-4.6
		l0.4-5.4l1.6-4.2L836.9,119.5z M839.1,147.8L781,160.4l-37.4,5.3l-6.7-0.4l-2.6,1.9l-7.3,0.2l-8.4,1l-8.9,1l8.5-4.9l0-2.1l1.5-2.1
		l10.6-11.5l3.9,4.5l3.8,1l2.5-1.1l2.2-1.3l2.5,1.3l3.9-1.4l1.9-4.6l2.6,0.5l2.9-2.1l1.8,0.5l2.8-3.7l0.3-2.1l-1-1.3l1-1.9l5.3-12.3
		l0.6-5.7l1.2-0.5l2.2,2.4l3.9-0.3l1.9-7.6l2.8-0.6l1-2.7l2.6-2.3l1.3-2.3l1.5-3.4l0.1-5.1l9.8,3.8c0.7,0.3,0.7-4.8,0.7-4.8l4.1,1.4
		l-0.5,2.6l8.2,2.9l1.3,1.8l-0.9,3.7l-1.3,1.3l-0.5,1.7l0.5,2.4l2,1.3l3.9,1.4l2.9,1l4.9,0.9l2.2,2.1l3.2,0.4l0.9,1.2l-0.4,4.7
		l1.4,1.1l-0.5,1.9l1.2,0.8l-0.2,1.4l-2.7-0.1l0.1,1.6l2.3,1.5l0.1,1.4l1.8,1.8l0.5,2.5l-2.6,1.4l1.6,1.5l5.8-1.7L839.1,147.8z"/>
	
		<linearGradient id="DC_1_" gradientUnits="userSpaceOnUse" x1="124.6695" y1="729.0277" x2="124.6695" y2="728.0277" gradientTransform="matrix(3.3322 0 0 -4.0954 393.8713 3085.6934)">
		<stop  offset="0" style="stop-color:#FFFF00"/>
		<stop  offset="1" style="stop-color:#FF0000"/>
	</linearGradient>
	<path id="DC" fill="url(#DC_1_)" d="M809.7,104.1l-1.1-1.6l-1-0.8l1.1-1.6l2.2,1.5L809.7,104.1z"/>
	
		<linearGradient id="PR_1_" gradientUnits="userSpaceOnUse" x1="172.5234" y1="704.7542" x2="172.5234" y2="701.4852" gradientTransform="matrix(60.4786 0 0 -16.28 -9783.9111 12039.4277)">
		<stop  offset="0" style="stop-color:#FFFF00"/>
		<stop  offset="1" style="stop-color:#FF0000"/>
	</linearGradient>
	<path id="PR" fill="url(#PR_1_)" d="M563.8,573.1l2.8-7l5.6,1.4l5.6,4.2l23.8,2.8l23.8-1.4h9.8l8.4,2.8l5.6-4.2h7l16.8,1.4
		l16.8,4.2l5.6,5.6h9.8l1.4,8.4l-1.4,5.6l-11.2,1.4l-7,2.8l-2.8,7l-4.2,7l-8.4,4.2h-16.8h-14l-7-2.8l0,0h-14l-7-2.8l-11.2,2.8h-14
		l-7-5.6l-8.4,2.8l-11.2,1.4l-1.4-7l2.8-4.2l2.8-7l-2.8-8.4l-11.2-8.4l4.2-2.8L563.8,573.1z M716.5,610.9l-6.1,2l12.2,4.1l16.2-4.1
		l4.1-6.1l-10.1,2L716.5,610.9z M744.9,596.7l-5.1-3l7.1-5.1l2,5.1L744.9,596.7z"/>
	
		<linearGradient id="VI_1_" gradientUnits="userSpaceOnUse" x1="176.3093" y1="708.4404" x2="176.3093" y2="705.0806" gradientTransform="matrix(29.2399 0 0 -28.5187 -4271.6387 20748.5781)">
		<stop  offset="0" style="stop-color:#FFFF00"/>
		<stop  offset="1" style="stop-color:#FF0000"/>
	</linearGradient>
	<path id="VI" fill="url(#VI_1_)" d="M845.5,547.5l-4.9,3.7l-6.1,3.7l1.2,4.9l6.1,2.4l8.6-1.2l3.7,6.1h6.1l3.7-3.7l13.5-2.5l6.1-1.2
		l4.9-3.7l-2.5-4.9h-7.3l-17.2-3.7H845.5z M894.1,552.3l-1,3.3l2.9,1.7l6.7-0.8l4.8,2.5l3.8-0.8l1-4.2l0,0l4.8-3.3l1-3.3l-3.8-1.7
		l-5.7,1.7l-6.7-2.5l-2.9,2.5l-1,3.3L894.1,552.3z M876.3,620.9l8.8-2.2l5.5,1.1l7.7-4.4l3.3,1.1l2.2,3.3l3.3,5.5l6.6-3.3l3.3,2.2
		l14.4-2l1.6,8.2l-6.1,2.6h-10.9l-18.6,5.5l-7.7-1.1l-13.1,2.2l-4.4-2.2l-3.3,2.2l-8.8,1.1c0,0-5.2-1.7-1.1-4.4
		c6.6-4.4,3.3-12,3.3-12L876.3,620.9z"/>
	
		<linearGradient id="GU_1_" gradientUnits="userSpaceOnUse" x1="157.4316" y1="708.8374" x2="157.4316" y2="705.8083" gradientTransform="matrix(28.3741 0 0 -30.2273 -4198.2974 22002.0254)">
		<stop  offset="0" style="stop-color:#FFFF00"/>
		<stop  offset="1" style="stop-color:#FF0000"/>
	</linearGradient>
	<path id="GU" fill="url(#GU_1_)" d="M286.7,577.1c0.1,0,0.3,0,0.4,0c1.3,0,2.5,0.4,3.8,0.6c1.7,0.3,2.4,2.3,3.8,2.9
		c1.5,0.6,1.9,1.9,3.1,2.9c0.3,0.3,0.7,0.8,0.8,1c2.2,1.8-2.3,3.6,2.7,2.5c0.1,0,3.9,1.5,4.6,1.6c1.9,0.4,3.9,0.3,5.3,0.6
		c1.8,0.4-1.8,2.7-2.7,4.1c-0.8,1.3-0.4,3.3-0.4,4.8c0,1.9-0.4,2.9-0.8,4.1c-0.4,1.5-1.4,2.4-2.3,3.2c-1,0.8-2.7,1.6-4.2,1.9
		c-2,0.4-1.8,1.6-4.6,1.6c-1.3,0-1.5,3.2-1.9,3.8c-1.2,1.9-3.4,0-4.2,2.5c-0.5,1.6-1.5,1.6-2.7,2.5c-1.1,0.9-2.7,1.5-3.8,1.9
		c-1.8,0.8-3,1.6-5.3,1.6c-0.9,0-2.7,2.8-3.1,3.2c-1.1,1.2-1.6,2-2.7,2.9c-0.5,0.4-3.6-0.3-5,0c-0.2,0,0,4.3,0,4.8
		c0,0.7-2.5,1.9-2.7,2.2c-0.3,0.6,0.8,3.8,0.8,4.8c0,1.6-0.1,3.4-0.4,4.5c-0.4,1.5-0.4,3.2-2.3,3.2c-2,0,1.1,2.5,1.5,2.9
		c0.7,0.6,0.5,3.4,0.8,4.1c0.6,2.1-1.1,2.8-1.1,4.5c0,0.1-3.1,1.8-3.4,1.9c-1.1,0.5-2.1,1.8-3.1,2.5c-1.5,1.2-1.8,1.8-3.1,2.9
		c-1.3,1-3,0.9-5,1.3c-1.8,0.3-3.3,0.6-5.3,0.6c-1.2,0-2.7-1.9-3.4-2.5c-1.6-1.4-2.2,0.8-3.1-2.2c-0.1-0.3-1.2-2.5-1.5-3.5
		c-0.5-1.7-0.4-2.8-0.8-4.1c-0.3-1.1-1.5-1.8-1.9-3.2c-0.5-1.6-0.2-3.3-1.1-4.8c-0.9-1.5-2.7-0.9-2.7-3.5c0-2.2,1-2.4,1.9-3.8
		c0.6-1,1.2-2.8,1.5-3.8c0.3-1.1,1.7-2.8,2.3-3.8c0.2-0.3-0.4-1.3-0.4-1.9l-9.5-7.3c1.7-2.8,2.1-1.8,5,0c1.6,1,2.8,1,4.6,0.6
		c1.4-0.3,1.4-3.8,1.4-0.8c0,2.2-0.5-0.3,1.5-1c3.5-1.1,3.2-0.9,0.2,0.8c-0.7,0.4,3.2,1.4,2.3-1.6c-0.5-1.6-3.1,0-2.3-2.5
		c0.3-0.9,5.8,0.3,6.1,0.3c1.7,0.3,2.9-1.9,4.6-1.9c1.7,0,3.7-0.6,5.7-0.6c1.5,0,4.2-0.7,5.3-1c2.3-0.5,3.4-0.6,5-1.6
		c1.1-0.7-0.7-4.1-0.8-4.5c-0.5-1.6,5.3,0,5.3,0c2.5,0.4,2.7-2.1,3.1-3.2c0.6-2.1,0.9-2.6,3.1-3.5c2.3-1,3.1-2.5,3.1-4.5
		c0-3,1.3-3.9,1.9-6.4c0.4-1.9-0.4-2.4,1.1-4.1c1.7-1.9,2.9-2.5,3.8-4.1c0.9-1.4,0.8-2.6,0.8-4.5c0-1.7,0.5-1.8-1.1-3.2"/>
	
		<linearGradient id="MP_1_" gradientUnits="userSpaceOnUse" x1="155.5102" y1="710.326" x2="155.5102" y2="706.5517" gradientTransform="matrix(21.4901 0 0 -34.0091 -2920.7888 24691.8496)">
		<stop  offset="0" style="stop-color:#FFFF00"/>
		<stop  offset="1" style="stop-color:#FF0000"/>
	</linearGradient>
	<path id="MP" fill="url(#MP_1_)" d="M380.6,539.3l4.1-2.7l3.4-2.3L380.6,539.3z M380.9,560.3l7.5,7.5l-0.7-7.1L380.9,560.3z
		 M398.3,582.6l5,12.4l0,0l5-12.4H398.3z M418.2,607.5v12.4l7.5,2.5l2.5-12.4L418.2,607.5z M450.8,639.4l-6.5,11.6l2.2,7l10.9,4.7
		l4.4-7V644L450.8,639.4z"/>
	
		<linearGradient id="AS_1_" gradientUnits="userSpaceOnUse" x1="152.5531" y1="704.3214" x2="152.5531" y2="698.3489" gradientTransform="matrix(30.5679 0 0 -13.5 -4544.7188 10101)">
		<stop  offset="0" style="stop-color:#FFFF00"/>
		<stop  offset="1" style="stop-color:#FF0000"/>
	</linearGradient>
	<path id="AS" fill="url(#AS_1_)" d="M83.4,673.3c1.3-0.6,3.3-3.9,4.2-5.5c1.5-2.8-1.5-3.4,2.3-4.2c1.9-0.4,4.1,2.4,4.7,3
		c1.5,1.4,2.4,2.6,3.3-0.4c0.3-1.2,4.2-5.4,5.6-6.4c1.8-1.2,3.3-1.4,5.1-3c1.5-1.4,2.8-2.6,4.2-3.8c1.7-1.5,2.6-2.1,3.7-4.2
		c1.1-2,2.6-3.2,3.7-4.2c2.5-2.3-6.1-1.3-9.8-1.3c-1,0,1.7-3.8,1.9-4.7c0.6-2.6,1.3-2.4,3.7-3c3.5-0.8,3.7,0.8,3.7,3.4
		c0,1.7,2.8-2.6,3.3-4.2c0.6-2.3,2.2-3.3,4.2-4.2c2-0.9,4.2-1.5,5.6-2.1c2.5-1.1,2.4-1,1.9-3c-0.3-1.2,0.3-3.8,0-5.1
		c-0.7-2.7,3-0.5,1.4-3.4c-0.7-1.3-4.8-2.2-5.6-2.5c-2.3-1.1-4.4-0.7-6.5-1.7c-2.5-1.1-2.1-2-0.5-3.4c0.9-0.8,5.8,0.3,6.5,0.4
		c2.2,0.5,4.6,0.4,7,0.4c3.1,0,4.9,0.1,7.5,1.3c1.9,0.9,1.4,2.6,1.4,5.1c0,2.8-0.8,4.1,1.9,4.7c3.3,0.7,3.9,0.2,6.1-1.3
		c0.9-0.6,6.8-1.2,7.5-1.3c2.5-0.5,3.9-1.5,5.1-2.5c1.7-1.5,4-2.7,5.1-3.8c1.7-1.6,3.4-2,5.6-2.5c2.8-0.6,4,1.1,5.1,2.1
		c1.1,1,0.5,4.5,0.5,5.9c0,1.3,8.5-2,8.9-2.1c2.5-1.1,4-0.7,5.6-2.1c2.2-2,0.7-3.3,4.2-2.5c2.6,0.6,4.3-0.8,6.5-1.3
		c2.5-0.6,1.9-2,1.9-4.7c0-2.1,0-4.2,0-6.4c0-3-1.9-2.4-4.2-3c-1.9-0.4-4.6,0.8-5.6,1.7c-2,1.8-2.5,1.2-3.3,3.8
		c-0.7,2.5-1,2.8-3.3,3.8c-1.1,0.5-3.1-2.1-5.6-2.1c-2.6,0-3.7-1.5-5.1-2.1c-2.1-0.9-3.7-1.3-6.5-1.3c-1,0-2.6,2.5-4.7,3
		c-1.9,0.4-5.4,0-6.1,0c-1.9,0,2.2-4.6,2.3-4.7c2.6-1.2,5.8,0.2,0.5-1.7c-2.1-0.8-4.9,0.4-7,0.4c-3.4,0-3.7,0.5-3.7,3.4
		c0,2.9-1.7,2.5-4.7,2.5c-1.8,0-1-3.8-2.8-4.2c-2.9-0.7-2.6,1.9-3.7-2.1c-0.4-1.6-3.9,0.1-5.1,1.3c-1.4,1.3-4.4-0.5-0.9-1.3
		c3-0.7-1.5-3.4-3.3-3.4c-3.1,0-2.6,1.9-4.2,3.8c-1.6,1.9-3.9,0.5-4.7,3.4c-0.4,1.5-3.6,1.9-5.1,2.5c-2.3,1.1-4.1,2.1-6.1,3
		c-2.9,1.3-6.5,0.8-9.8,0.8c-1.7,0,0.9,3.1,0.9,4.7c0,2.1,0,4.2,0,6.4c0,3.5-0.5,2.7-3.7,3.4c-1.7,0.4-3.1-1.7-5.6-1.7
		c-3.1,0-3.7,1.3-3.7,3.8c0,2.7-2.6,1.2-4.7,2.1c-2.6,1.2-4.7,1.7-4.7-1.3c0-2.2-2.6-2.5-4.7-3c-3-0.7-3.1,2-5.1,3
		c-2.3,1-4.8,0.7-7,1.7c-0.6,0.3-1.9-3.1-3.3-3.4c-2.4-0.5-5.7,0.3-7.9,0.8c-2.7,0.6-1.3,2.5-4.7,2.5c-2.5,0-4.7,0.7-6.1,1.3
		c-1.3,0.6,2.1,2.5-3.3,2.5c-3.4,0-3.9,0.3-5.1,2.5c-1.4,2.5-0.3,3.4-4.2,4.2c-1.2,0.3-3.4,2.7-3.7,3.8c-0.5,1.8-6.2,1.6-1.9,2.5
		c2.4,0.5,4.4,0.7,7,1.3c2.3,0.5,5,1.4,6.5,2.1c1.5,0.7,5.6-0.2,6.5-0.4c2.3-0.5,2.2-1.4,5.1,0c1.8,0.8,1.5,3,3.3,3.8
		c1.6,0.8,6.6,0.4,8.4,0.4c0.4,0,0.8,5.4,0.9,5.9c0.3,1.2,0.9,3.8,1.4,5.5c0.1,0.5,4.5,2.4,5.1,3c1.3,1.2,3,1.7,4.7,2.1
		c2.7,0.6,3.7,0.4,5.1,1.7C84.4,669.1,82.6,671.6,83.4,673.3z"/>
</g>
<g id="DC-label">
	<line fill="none" stroke="#FF0000" stroke-width="2" x1="808" y1="100.3" x2="918" y2="183.3"/>
	<path fill="#FF0000" d="M921,175.3h24c1.7,0,3,1.3,3,3v11c0,1.7-1.3,3-3,3h-24c-1.7,0-3-1.3-3-3v-11
		C918,176.6,919.3,175.3,921,175.3z"/>
	<text transform="matrix(1 0 0 1 922.957 189.2643)" font-family="'Arial-BoldMT'" font-size="15">DC</text>
</g>
<g id="MD-label">
	<line fill="none" stroke="#FF0000" stroke-width="2" x1="838" y1="110.3" x2="918" y2="158.3"/>
	<path fill="#FF0000" d="M921,150.3h24c1.7,0,3,1.3,3,3v11c0,1.7-1.3,3-3,3h-24c-1.7,0-3-1.3-3-3v-11
		C918,151.6,919.3,150.3,921,150.3z"/>
	<text transform="matrix(1 0 0 1 922.957 164.2643)" font-family="'Arial-BoldMT'" font-size="15">MD</text>
</g>
<g id="DE-label">
	<line fill="none" stroke="#FF0000" stroke-width="2" x1="838" y1="100.3" x2="918" y2="133.3"/>
	<path fill="#FF0000" d="M921,125.3h24c1.7,0,3,1.3,3,3v11c0,1.7-1.3,3-3,3h-24c-1.7,0-3-1.3-3-3v-11
		C918,126.6,919.3,125.3,921,125.3z"/>
	<text transform="matrix(1 0 0 1 922.957 139.2643)" font-family="'Arial-BoldMT'" font-size="15">DE</text>
</g>
<g id="NJ-label">
	<line fill="none" stroke="#FF0000" stroke-width="2" x1="848" y1="80.3" x2="918" y2="108.3"/>
	<path fill="#FF0000" d="M921,100.3h24c1.7,0,3,1.3,3,3v11c0,1.7-1.3,3-3,3h-24c-1.7,0-3-1.3-3-3v-11
		C918,101.6,919.3,100.3,921,100.3z"/>
	<text transform="matrix(1 0 0 1 922.957 114.2643)" font-family="'Arial-BoldMT'" font-size="15">NJ</text>
</g>
<g id="CT-label">
	<line fill="none" stroke="#FF0000" stroke-width="2" x1="868" y1="30.3" x2="918" y2="83.3"/>
	<path fill="#FF0000" d="M921,75.3h24c1.7,0,3,1.3,3,3v11c0,1.7-1.3,3-3,3h-24c-1.7,0-3-1.3-3-3v-11C918,76.6,919.3,75.3,921,75.3z"
		/>
	<text transform="matrix(1 0 0 1 922.957 89.2643)" font-family="'Arial-BoldMT'" font-size="15">CT</text>
</g>
<g id="RI-label">
	<line fill="none" stroke="#FF0000" stroke-width="2" x1="886" y1="23.3" x2="918" y2="58.3"/>
	<path fill="#FF0000" d="M921,50.3h24c1.7,0,3,1.3,3,3v11c0,1.7-1.3,3-3,3h-24c-1.7,0-3-1.3-3-3v-11C918,51.6,919.3,50.3,921,50.3z"
		/>
	<text transform="matrix(1 0 0 1 924.957 64.2643)" font-family="'Arial-BoldMT'" font-size="15">RI</text>
</g>
<g id="MH-label">
	<line fill="none" stroke="#FF0000" stroke-width="2" x1="893" y1="10.3" x2="918" y2="33.3"/>
	<path fill="#FF0000" d="M921,25.3h24c1.7,0,3,1.3,3,3v11c0,1.7-1.3,3-3,3h-24c-1.7,0-3-1.3-3-3v-11C918,26.6,919.3,25.3,921,25.3z"
		/>
	<text transform="matrix(1 0 0 1 921.957 39.2643)" font-family="'Arial-BoldMT'" font-size="15">MH</text>
</g>
<g id="MH-label_1_">
	<line fill="none" stroke="#FF0000" stroke-width="2" x1="878" y1="-9.7" x2="918" y2="8.3"/>
	<path fill="#FF0000" d="M921,0.3h24c1.7,0,3,1.3,3,3v11c0,1.7-1.3,3-3,3h-24c-1.7,0-3-1.3-3-3v-11C918,1.6,919.3,0.3,921,0.3z"/>
	<text transform="matrix(1 0 0 1 922.957 14.2643)" font-family="'Arial-BoldMT'" font-size="15">NH</text>
</g>
<g id="VT-label">
	<line fill="none" stroke="#FF0000" stroke-width="2" x1="853" y1="-19.7" x2="918" y2="-16.7"/>
	<path fill="#FF0000" d="M921-24.7h24c1.7,0,3,1.3,3,3v11c0,1.7-1.3,3-3,3h-24c-1.7,0-3-1.3-3-3v-11C918-23.4,919.3-24.7,921-24.7z"
		/>
	<text transform="matrix(1 0 0 1 922.957 -10.7357)" font-family="'Arial-BoldMT'" font-size="15">VT</text>
</g>
<g id="AS-label">
	<path fill="#FF0000" d="M138,503.3h24c1.7,0,3,1.3,3,3v11c0,1.7-1.3,3-3,3h-24c-1.7,0-3-1.3-3-3v-11
		C135,504.7,136.3,503.3,138,503.3z"/>
	<text transform="matrix(1 0 0 1 139.9887 517.3273)" font-family="'Arial-BoldMT'" font-size="15">AS</text>
</g>
<g id="MP-label">
	<path fill="#FF0000" d="M388.5,503.3h24c1.7,0,3,1.3,3,3v11c0,1.7-1.3,3-3,3h-24c-1.7,0-3-1.3-3-3v-11
		C385.5,504.7,386.9,503.3,388.5,503.3z"/>
	<text transform="matrix(1 0 0 1 390.5154 517.3273)" font-family="'Arial-BoldMT'" font-size="15">MP</text>
</g>
<g id="GU-label">
	<path fill="#FF0000" d="M271.7,500.3h24c1.7,0,3,1.3,3,3v11c0,1.7-1.3,3-3,3h-24c-1.7,0-3-1.3-3-3v-11
		C268.7,501.7,270,500.3,271.7,500.3z"/>
	<text transform="matrix(1 0 0 1 272.6814 514.3272)" font-family="'Arial-BoldMT'" font-size="15">GU</text>
</g>
<g id="VI-label">
	<path fill="#FF0000" d="M860.3,503.2h24c1.7,0,3,1.3,3,3v11c0,1.7-1.3,3-3,3h-24c-1.7,0-3-1.3-3-3v-11
		C857.3,504.6,858.6,503.2,860.3,503.2z"/>
	<text transform="matrix(1 0 0 1 865.2845 517.2436)" font-family="'Arial-BoldMT'" font-size="15">VI</text>
</g>
<g id="PR-label">
	<path fill="#FF0000" d="M629.1,512.1h24c1.7,0,3,1.3,3,3v11c0,1.7-1.3,3-3,3h-24c-1.7,0-3-1.3-3-3v-11
		C626.1,513.5,627.4,512.1,629.1,512.1z"/>
	<text transform="matrix(1 0 0 1 631.0501 526.1208)" font-family="'Arial-BoldMT'" font-size="15">PR</text>
</g>
<rect x="868" y="70.3" fill="#008000" width="70" height="120"/>
</svg>
